<svg width="182" height="32" viewBox="0 0 182 32" fill="none" xmlns="http://www.w3.org/2000/svg">
<g clip-path="url(#clip0)">
<path d="M22.8548 14.2841C22.8173 14.3216 22.8056 14.3778 22.8244 14.4274C23.203 15.4248 23.4102 16.5066 23.4102 17.6369C23.4102 22.6342 19.3592 26.6852 14.3621 26.6852C9.36496 26.6852 5.31396 22.6342 5.31396 17.6369C5.31396 12.6396 9.36496 8.58851 14.3621 8.58851C15.6167 8.58851 16.8117 8.84387 17.8979 9.30546C17.9485 9.32698 18.0072 9.31594 18.0461 9.27706L21.7892 5.53381C21.8501 5.47289 21.8383 5.37108 21.7646 5.32659C19.6028 4.02382 17.0699 3.27435 14.3621 3.27435C6.43012 3.27435 0 9.70466 0 17.6369C0 25.5691 6.43012 31.9993 14.3621 31.9993C22.294 31.9993 28.7241 25.5691 28.7241 17.6369C28.7241 15.0514 28.041 12.6254 26.8453 10.5297C26.8019 10.4538 26.6983 10.4405 26.6365 10.5023L22.8548 14.2841Z" fill="#2D3A48"/>
<path fill-rule="evenodd" clip-rule="evenodd" d="M24.1779 4.62849L22.2035 4.36528C22.0692 4.3474 22.0446 4.16049 22.1696 4.10744L31.8162 0.0106605C31.9245 -0.0353729 32.034 0.0741291 31.9903 0.185004L28.1111 10.045C28.0607 10.1731 27.876 10.1505 27.8568 10.014L27.5575 7.88361L16.1068 19.5309C15.6705 19.9747 15.0788 20.224 14.4619 20.224C13.8449 20.224 13.2532 19.9747 12.8169 19.5309L9.43331 16.0891C8.52483 15.1651 8.52483 13.6668 9.43331 12.7427C10.3417 11.8187 11.8147 11.8187 12.7232 12.7427L14.4619 14.5113L24.1779 4.62849Z" fill="#069BA2"/>
<path d="M38.633 16.5948C38.5595 16.5948 38.5001 16.5351 38.5001 16.4614V8.45357C38.5001 8.37989 38.5595 8.32021 38.633 8.32021H43.1879C46.0378 8.32021 47.7627 9.93749 47.7627 12.4951C47.7627 15.0151 46.0378 16.5948 43.1879 16.5948H38.633ZM43.8629 20.5816C48.9629 20.5816 52.3379 17.1589 52.3379 12.4575C52.3379 7.79365 48.9629 4.33337 43.8629 4.33337H34.133C34.0595 4.33337 34 4.39308 34 4.46671V30.8667C34 30.9404 34.0595 31 34.133 31H38.3671C38.4406 31 38.5001 30.9404 38.5001 30.8667V20.7149C38.5001 20.6413 38.5595 20.5816 38.633 20.5816H43.8629Z" fill="#2D3A48"/>
<path d="M75.5145 8.58349C75.5879 8.58349 75.6474 8.52381 75.6474 8.45021V4.46671C75.6474 4.39308 75.5879 4.33337 75.5145 4.33337H53.9923C53.9188 4.33337 53.8594 4.39308 53.8594 4.46671V8.45021C53.8594 8.52381 53.9188 8.58349 53.9923 8.58349H62.3516C62.4251 8.58349 62.4846 8.64317 62.4846 8.71685V30.8667C62.4846 30.9404 62.544 31 62.6175 31H66.8517C66.9251 31 66.9847 30.9404 66.9847 30.8667V8.71685C66.9847 8.64317 67.0441 8.58349 67.1175 8.58349H75.5145Z" fill="#2D3A48"/>
<path d="M108.456 31C108.529 31 108.588 30.9404 108.588 30.8667V4.46671C108.588 4.39308 108.529 4.33337 108.456 4.33337H102.564C102.511 4.33337 102.462 4.36561 102.442 4.41511L94.0853 24.3902C94.0397 24.4989 93.8861 24.4992 93.8405 24.3908L85.3725 4.41454C85.3517 4.36534 85.3037 4.33337 85.2501 4.33337H79.4708C79.3974 4.33337 79.3379 4.39308 79.3379 4.46671V30.8667C79.3379 30.9404 79.3974 31 79.4708 31H83.5925C83.6661 31 83.7253 30.9404 83.7253 30.8667V12.1021C83.7253 11.9566 83.9245 11.9163 83.9813 12.0504L91.9037 30.9184C91.9245 30.9679 91.9733 31 92.0269 31H95.7501C95.8037 31 95.8517 30.968 95.8725 30.9187L103.871 11.9717C103.927 11.8379 104.126 11.8784 104.126 12.0236V30.8667C104.126 30.9404 104.185 31 104.259 31H108.456Z" fill="#2D3A48"/>
<path d="M121.44 19.6847C121.452 19.7055 121.459 19.7294 121.459 19.7538V30.8667C121.459 30.9404 121.519 31 121.592 31H125.826C125.9 31 125.959 30.9404 125.959 30.8667V19.754C125.959 19.7296 125.966 19.7055 125.978 19.6845L135.21 4.53625C135.265 4.44741 135.201 4.33337 135.098 4.33337H130.349C130.302 4.33337 130.258 4.35885 130.234 4.40017L123.975 15.3028C123.923 15.392 123.795 15.3918 123.744 15.3024L117.522 4.40048C117.498 4.35897 117.454 4.33337 117.407 4.33337H112.395C112.291 4.33337 112.227 4.44697 112.282 4.53585L121.44 19.6847Z" fill="#2D3A48"/>
<path d="M157.988 31C158.061 31 158.12 30.9404 158.12 30.8667V26.8456C158.12 26.772 158.061 26.7123 157.988 26.7123H143.29C143.178 26.7123 143.116 26.5809 143.188 26.494L157.903 8.65813C157.922 8.63421 157.933 8.60413 157.933 8.57309V4.46671C157.933 4.39308 157.873 4.33337 157.8 4.33337H137.928C137.855 4.33337 137.795 4.39308 137.795 4.46671V8.45021C137.795 8.52381 137.855 8.58349 137.928 8.58349H151.839C151.952 8.58349 152.013 8.71453 151.942 8.80149L137.413 26.525C137.393 26.5488 137.383 26.5788 137.383 26.6096V30.8667C137.383 30.9404 137.442 31 137.516 31H157.988Z" fill="#2D3A48"/>
<path d="M176.225 30.9293C176.247 30.9728 176.293 31 176.342 31H181.138C181.239 31 181.303 30.8915 181.255 30.8026L175.446 20.17C175.403 20.0931 175.447 19.997 175.531 19.9748C179.144 19.0262 181.362 16.1607 181.362 12.4199C181.362 7.90648 178.175 4.33337 173.037 4.33337H162.97C162.896 4.33337 162.837 4.39308 162.837 4.46671V30.8667C162.837 30.9404 162.896 31 162.97 31H167.242C167.315 31 167.375 30.9404 167.375 30.8667V20.6021C167.375 20.5284 167.434 20.4688 167.507 20.4688H170.595C170.643 20.4688 170.689 20.496 170.712 20.5395L176.225 30.9293ZM167.507 16.482C167.434 16.482 167.375 16.4222 167.375 16.3486V8.45357C167.375 8.37989 167.434 8.32021 167.507 8.32021H172.212C174.987 8.32021 176.787 9.93749 176.787 12.4199C176.787 14.8646 174.987 16.482 172.212 16.482H167.507Z" fill="#2D3A48"/>
</g>
<defs>
<clipPath id="clip0">
<rect width="182" height="32" fill="white"/>
</clipPath>
</defs>
</svg>

