<svg width="599" height="420" viewBox="0 0 599 420" fill="none" xmlns="http://www.w3.org/2000/svg">
<g clip-path="url(#clip0_791_371)">
<path opacity="0.63" d="M1.26227 181.592C5.82351 159.277 21.3182 140.252 40.2519 127.589C59.1857 114.927 81.3753 108.001 103.642 103.189C125.225 98.5266 147.809 95.473 166.69 84.0241C188.673 70.692 203.199 47.3704 225.23 34.1202C242.748 23.5865 264.456 20.2583 284.324 25.0603C305.695 30.2237 324.181 44.1145 345.571 49.1814C379.378 57.1913 414.871 42.1253 449.294 46.831C477.702 50.7131 503.793 68.8665 517.308 94.1532C526.026 110.457 529.788 129.4 540.818 144.24C554.338 162.427 577.163 172.214 589.758 191.052C604.608 213.261 600.518 246.119 580.684 264.017C566.981 276.381 547.821 281.496 534.498 294.275C507.95 319.735 511.75 367.929 481.96 389.502C456.331 408.06 420.54 396.722 389.343 402.025C364.692 406.215 340.894 421.223 316.436 416.041C294.13 411.316 277.995 390.846 255.993 384.868C224.344 376.266 192.873 399.742 160.106 401.1C137.136 402.054 113.988 391.221 100.001 372.972C77.9652 344.222 79.9545 302.694 59.3831 272.88C48.1125 256.547 29.9591 251.017 17.3013 236.9C3.56938 221.593 -2.93773 202.149 1.26227 181.592Z" fill="#E4EBEB"/>
<path opacity="0.38" d="M93.7581 370.876C108.088 370.876 119.705 368.834 119.705 366.315C119.705 363.796 108.088 361.754 93.7581 361.754C79.4282 361.754 67.8115 363.796 67.8115 366.315C67.8115 368.834 79.4282 370.876 93.7581 370.876Z" fill="#346768"/>
<path d="M84.2605 330.273C80.3735 329.748 75.899 329.334 73.616 326.14C71.5786 323.289 72.0121 319.017 69.4786 316.599C67.3111 314.528 63.9155 314.696 60.9293 314.923C57.9382 315.149 54.4848 315.12 52.5341 312.842C51.6575 311.821 51.1277 310.381 49.8898 309.86C48.6038 309.321 47.1733 310.01 45.8054 310.289C42.8673 310.896 39.621 309.345 38.2435 306.682C37.9063 306.031 37.6751 305.275 37.8871 304.572C38.388 302.915 40.6517 302.886 42.3761 302.698C48.4593 302.043 53.3962 295.459 59.3735 296.769C62.4079 297.434 64.6717 300.04 67.6146 301.032C69.7579 301.759 72.0891 301.576 74.3481 301.696C76.607 301.817 79.0442 302.351 80.4988 304.09C82.6277 306.633 81.9244 310.862 84.352 313.131C86.0811 314.749 88.7591 314.74 90.8543 315.838C93.0169 316.97 94.4474 319.368 94.4233 321.805C94.4088 323.351 93.8598 324.84 93.7105 326.376C93.5611 327.942 93.8261 329.512 94.091 331.063C94.6352 334.242 95.2614 337.421 95.7141 340.614C93.1228 334.728 91.3889 331.231 84.2605 330.263V330.273Z" fill="#EBAB4C"/>
<path d="M93.8979 331.52C94.1146 328.067 91.6437 325.11 90.2614 321.936C88.3685 317.581 88.9513 311.691 92.9538 309.148C96.046 307.183 100.415 307.611 103.049 305.058C106.204 302 105.409 295.994 109.113 293.624C111.637 292.011 115.052 292.959 117.846 291.881C120.721 290.768 122.339 287.801 124.425 285.528C126.843 282.888 130.128 281.063 133.644 280.388C135.315 280.07 137.116 280.022 138.658 280.75C140.199 281.477 141.389 283.139 141.133 284.824C140.787 287.141 138.219 288.273 136.447 289.805C133.345 292.483 132.435 297 132.897 301.075C133.345 305.006 134.742 309.461 132.3 312.577C128.702 317.172 120.037 314.47 116.593 319.185C115.293 320.967 114.7 323.79 112.509 324.084C111.921 324.161 111.334 324.021 110.746 323.949C107.341 323.549 103.83 325.967 102.991 329.29C102.544 331.068 102.78 333.014 101.999 334.67C100.472 337.926 96.1135 338.384 93.0598 340.277C91.1476 341.462 89.9628 343.292 89.0091 345.223C88.7924 339.863 93.5703 336.568 93.8882 331.52H93.8979Z" fill="#EDC36F"/>
<path d="M103.724 320.62C104.938 320.119 106.229 319.835 107.515 319.575C110.549 318.959 113.848 318.308 115.876 315.972C117.292 314.34 118.005 311.97 119.961 311.05C122.205 309.995 125.148 311.373 127.219 310.01C128.231 309.345 128.775 308.16 129.069 306.985C129.777 304.167 129.324 301.191 129.738 298.315C130.306 294.404 132.57 290.768 135.826 288.533C133.538 290.618 132.469 293.773 132.219 296.86C131.968 299.948 132.45 303.04 132.797 306.118C132.989 307.837 133.119 309.672 132.325 311.204C131.612 312.582 130.239 313.511 128.789 314.055C127.34 314.6 125.789 314.807 124.267 315.096C120.519 315.809 116.478 317.36 114.845 320.808C114.422 321.704 114.099 322.783 113.198 323.197C112.076 323.708 110.829 322.86 109.605 322.744C108.151 322.605 106.787 323.534 105.853 324.657C104.919 325.779 104.273 327.118 103.358 328.259C101.769 330.249 96.6872 331.525 97.4145 327.522C97.9636 324.502 101.027 321.738 103.724 320.625V320.62Z" fill="#EBAB4C"/>
<path d="M83.9046 311.209C83.3266 307.953 83.8179 304.432 82.3247 301.48C79.3433 295.584 69.8066 294.491 68.4146 288.037C67.5718 284.126 70.3316 279.878 68.7807 276.193C67.8945 274.083 65.7656 272.696 64.836 270.606C64.0846 268.915 64.2628 266.791 65.4525 265.37C66.6422 263.949 68.8481 263.42 70.4713 264.315C71.5646 264.918 72.2727 266.02 73.077 266.979C75.2445 269.57 78.4041 271.314 81.7564 271.767C84.5018 272.137 87.3484 271.675 90.0167 272.412C94.5635 273.674 97.675 278.765 96.7261 283.389C96.1963 285.966 94.5924 288.475 95.2234 291.028C96.1674 294.833 101.692 296.87 101.191 300.752C100.796 303.782 96.7743 305.41 96.5672 308.459C96.3986 310.954 98.8887 312.823 99.4908 315.25C99.8809 316.811 99.4474 318.439 99.0862 320.009C97.5449 326.646 97.1933 333.558 98.041 340.315C96.3938 337.358 96.9621 333.736 96.861 330.35C96.5816 321.131 85.5229 320.341 83.9094 311.209H83.9046Z" fill="#EDC36F"/>
<path d="M102.511 366.816H85.0362C81.366 366.816 78.2208 364.186 77.5706 360.574L71.916 329.17H115.631L109.976 360.574C109.326 364.186 106.181 366.816 102.511 366.816Z" fill="#346768"/>
<path d="M95.0596 326.781C95.888 322.903 97.7183 319.262 100.31 316.266C101.605 314.768 103.079 313.429 104.712 312.302C106.571 311.021 108.613 310.063 110.617 309.037C112.462 308.093 114.249 307.052 115.857 305.733C117.22 304.61 118.453 303.339 119.605 302.005C121.945 299.293 123.954 296.321 126.189 293.523C128.424 290.724 130.769 288.234 133.799 286.505C134.184 286.288 134.574 286.081 134.974 285.893C135.263 285.758 135.013 285.33 134.724 285.465C131.545 286.982 128.958 289.433 126.714 292.107C124.469 294.78 122.379 297.867 120.096 300.656C118.969 302.038 117.769 303.368 116.45 304.567C114.957 305.925 113.3 307.043 111.522 308.001C109.485 309.104 107.356 310.043 105.386 311.272C103.7 312.322 102.149 313.583 100.777 315.019C98.0458 317.875 96.0084 321.396 94.944 325.201C94.8091 325.678 94.6935 326.159 94.5876 326.646C94.5201 326.954 94.997 327.089 95.0644 326.776L95.0596 326.781Z" fill="#346768"/>
<path d="M68.2455 266.656C70.6393 270.273 73.4714 273.602 76.6792 276.525C79.5835 279.174 83.2007 281.472 84.848 285.185C85.7101 287.126 85.951 289.274 86.2159 291.36C86.4808 293.446 86.7939 295.483 87.6319 297.41C88.47 299.336 89.7512 301.176 90.5652 303.18C91.3792 305.183 91.5911 307.153 91.6104 309.21C91.6537 313.246 90.8783 317.461 92.1643 321.386C92.3136 321.844 92.4966 322.292 92.6989 322.73C92.8338 323.019 93.2576 322.769 93.1276 322.48C91.3551 318.689 92.0246 314.359 92.0968 310.323C92.1354 308.304 92.0439 306.253 91.4755 304.302C90.8783 302.25 89.7175 300.444 88.7349 298.57C88.2388 297.617 87.7957 296.644 87.4922 295.613C87.1888 294.582 87.0106 293.571 86.8613 292.53C86.5627 290.459 86.4085 288.35 85.7872 286.336C85.1659 284.323 84.1255 282.758 82.7576 281.303C81.3897 279.849 79.8436 278.63 78.3457 277.349C75.0367 274.521 72.0746 271.29 69.5652 267.735C69.2569 267.302 68.9583 266.858 68.6645 266.415C68.4911 266.15 68.0624 266.401 68.2358 266.666L68.2455 266.656Z" fill="#346768"/>
<path d="M39.6689 304.88C42.8864 306.604 46.6384 305.964 50.0389 305.232C51.8499 304.842 53.6513 304.389 55.4864 304.138C57.1818 303.907 58.9446 303.849 60.6063 304.331C61.4251 304.567 62.2006 304.938 62.899 305.429C63.8719 306.118 64.6618 307.024 65.5721 307.785C67.2579 309.201 69.3338 309.807 71.4531 310.251C73.5724 310.694 75.7639 311.012 77.6712 312.076C79.5786 313.14 80.9753 314.773 82.2228 316.488C83.4703 318.203 84.6792 320.129 86.0857 321.82C87.6029 323.645 89.3368 325.288 91.2297 326.723C91.6969 327.079 92.1786 327.417 92.665 327.744C92.9299 327.922 93.1756 327.494 92.9155 327.315C90.9214 325.977 89.0864 324.406 87.4584 322.639C85.9171 320.963 84.6503 319.094 83.3547 317.23C82.1602 315.51 80.8838 313.796 79.2125 312.505C77.5412 311.214 75.4267 310.564 73.3123 310.125C71.1978 309.687 69.0256 309.369 67.1471 308.29C65.2687 307.211 64.002 305.27 61.9935 304.321C58.776 302.799 55.0577 303.613 51.7439 304.346C48.4302 305.078 44.548 306.166 41.1091 304.977C40.6997 304.837 40.3047 304.659 39.9242 304.451C39.6448 304.302 39.3944 304.726 39.6737 304.88H39.6689Z" fill="#346768"/>
<path opacity="0.33" d="M94.78 314.345C94.9486 312.919 95.1894 311.455 95.9649 310.246C97.1256 308.44 99.2593 307.539 101.292 306.851C102.289 306.513 103.315 306.186 104.148 305.55C107.414 303.05 106.142 297.352 109.133 294.54C111.922 291.915 116.613 293.326 120.071 291.679C121.974 290.773 123.313 289.034 124.734 287.474C126.492 285.542 128.496 283.799 130.832 282.638C133.172 281.482 135.87 280.943 138.427 281.468C135.248 281.525 132.098 282.628 129.584 284.569C126.55 286.91 124.459 290.378 121.203 292.401C119.248 293.62 116.974 294.241 114.691 294.583C113.844 294.708 112.972 294.805 112.206 295.195C110.622 295.999 109.885 297.839 109.48 299.563C109.075 301.288 108.839 303.137 107.775 304.563C105.55 307.549 100.83 307.327 98.1034 309.861C96.8752 311.002 96.172 312.597 95.671 314.201C94.8426 316.845 94.5392 319.547 94.544 322.307C93.7637 320.11 94.5103 316.623 94.78 314.345Z" fill="#FFD892"/>
<path d="M498.138 71.0438L497.936 71.2124L487.951 115.351L473.406 112.061L481.83 74.8007L461.576 50.6218L473.011 41.0417L498.138 71.0438Z" fill="white" stroke="#244949" stroke-width="0.830967" stroke-miterlimit="10"/>
<path d="M473.406 112.062L443.283 137.204L448.432 151.533L487.952 115.351" fill="white"/>
<path d="M473.406 112.062L443.283 137.204L448.432 151.533L487.952 115.351" stroke="#244949" stroke-width="0.830967" stroke-miterlimit="10"/>
<path d="M479.769 122.821C484.629 122.821 488.568 118.881 488.568 114.021C488.568 109.161 484.629 105.222 479.769 105.222C474.909 105.222 470.969 109.161 470.969 114.021C470.969 118.881 474.909 122.821 479.769 122.821Z" fill="white" stroke="#244949" stroke-width="0.830967" stroke-miterlimit="10"/>
<path d="M489.646 81.7558C494.506 81.7558 498.446 77.816 498.446 72.956C498.446 68.096 494.506 64.1562 489.646 64.1562C484.786 64.1562 480.847 68.096 480.847 72.956C480.847 77.816 484.786 81.7558 489.646 81.7558Z" fill="white" stroke="#244949" stroke-width="0.830967" stroke-miterlimit="10"/>
<path d="M455.483 295.228L191.042 285.403C188.942 285.326 187.28 283.601 187.28 281.497V102.606C187.28 100.511 188.932 98.7918 191.023 98.7003L455.464 87.473C457.684 87.3766 459.539 89.1539 459.539 91.3792V291.322C459.539 293.538 457.699 295.31 455.488 295.228H455.483Z" fill="white" stroke="#244949" stroke-width="0.755424" stroke-miterlimit="10"/>
<path opacity="0.5" d="M289.165 196.264L207.255 193.908V125.649H289.165V196.264Z" fill="#E4EBEB"/>
<path opacity="0.5" d="M289.165 267.346L207.255 264.09V209.076L289.165 212.332V267.346Z" fill="#E4EBEB"/>
<path d="M306.422 210.602L434.507 214.99V274.932L307.843 269.195L306.422 210.602Z" fill="#E4EBEB"/>
<path d="M286.226 393.558L290.204 387.845C291.75 386.265 294.072 385.716 296.162 386.439L317.417 392.705L345.642 394.213C347.983 394.463 349.905 396.183 350.42 398.485L350.714 402.569L343.87 402.854L343.846 401.351C343.638 398.827 341.683 399.318 339.848 399.174L319.96 397.974L303.96 409.404C302.544 410.314 301.658 411.856 301.581 413.541L301.557 414.143H294.982L295.131 411.384C295.218 409.789 296.037 408.32 297.347 407.41L314.47 395.971L297.511 391.472C295.521 390.745 294.197 390.86 293.214 393.283L292.916 393.553H286.226V393.558Z" fill="#66AFAB" stroke="#244949" stroke-width="1.51085" stroke-miterlimit="10"/>
<path d="M351.211 404.332C351.211 406.461 349.482 408.19 347.353 408.19C345.224 408.19 343.49 406.461 343.49 404.332C343.49 403.822 343.591 403.335 343.77 402.887H350.932C351.11 403.335 351.211 403.822 351.211 404.332Z" fill="#244949"/>
<path d="M302.102 416.142C302.102 418.271 300.373 420 298.244 420C296.115 420 294.381 418.271 294.381 416.142C294.381 415.632 294.482 415.145 294.66 414.698H301.822C302.001 415.145 302.102 415.632 302.102 416.142Z" fill="#244949"/>
<path d="M293.432 395.364C293.432 397.493 291.703 399.222 289.574 399.222C287.445 399.222 285.711 397.493 285.711 395.364C285.711 394.853 285.812 394.367 285.99 393.919H293.152C293.331 394.367 293.432 394.853 293.432 395.364Z" fill="#244949"/>
<path d="M321.56 394.42L320.862 395.841C320.25 397.088 318.516 397.194 317.755 396.033L316.772 394.54L314.075 350.618L322.663 351.057L321.555 394.415L321.56 394.42Z" fill="#66AFAB"/>
<path d="M439.588 402.304C439.588 402.304 438.182 402.444 437.902 403.711C437.623 404.977 437.623 411.576 437.623 411.576L445.488 411.855L446.75 410.17C446.75 410.17 449.279 412.559 453.07 413.262C456.86 413.965 464.307 413.825 465.289 412.279C466.272 410.733 464.027 409.187 461.638 407.925C459.249 406.663 451.528 404.414 448.715 398.653L439.588 402.304Z" fill="#244949"/>
<path d="M414.909 394.815L412.606 400.778C412.606 400.778 422.442 404.231 425.158 398.056L414.904 394.815H414.909Z" fill="#E4EBEB"/>
<path d="M413.681 399.708C413.681 399.708 412.66 399.318 411.957 400.258C411.253 401.197 409.447 407.319 409.447 407.319L415.959 410.141L418.001 408.884C418.001 408.884 418.078 410.608 419.336 411.942C420.593 413.277 427.654 416.335 430.399 416.807C433.145 417.279 437.07 416.417 437.46 414.688C437.85 412.959 434.479 412.569 431.338 409.746C428.198 406.924 425.192 401.192 425.168 398.056C425.168 398.056 419.649 402.372 413.686 399.704L413.681 399.708Z" fill="#244949"/>
<path d="M439.025 398.374V403.571C439.025 403.571 448.437 404.414 449.978 398.653L439.025 398.374Z" fill="#E4EBEB"/>
<path d="M422.163 277.6C422.163 277.6 420.357 289.275 423.608 303.002C426.859 316.729 430.953 330.331 430.953 330.331C430.953 330.331 418.079 382.841 413.994 395.682C413.994 395.682 421.97 398.793 425.472 398.99L438.313 363.194L437.923 399.578C437.923 399.578 445.509 401.717 450.956 398.995L457.569 331.29L457.116 278.645C457.116 278.645 443.929 283.043 422.158 277.605L422.163 277.6Z" fill="#244949"/>
<path d="M437.185 191.312H311.46C310.593 191.312 309.895 190.609 309.895 189.747V126.776C309.895 125.937 310.559 125.244 311.397 125.21L437.123 120.042C438.014 120.003 438.756 120.716 438.756 121.607V189.747C438.756 190.614 438.052 191.312 437.19 191.312H437.185Z" fill="#E4EBEB"/>
<g opacity="0.26">
<path opacity="0.26" d="M367.664 138.22L320.948 139.621V133.162L367.664 131.472V138.22Z" fill="#66AFAB"/>
<path opacity="0.26" d="M367.664 160.053L320.948 160.52V154.061L367.664 153.305V160.053Z" fill="#66AFAB"/>
<path opacity="0.26" d="M355.256 170.972H320.948V164.513L355.256 164.301V170.972Z" fill="#66AFAB"/>
<path opacity="0.26" d="M379.7 148.898L320.948 150.073V143.609L379.7 142.073V148.898Z" fill="#66AFAB"/>
</g>
<path opacity="0.26" d="M432.832 183.894H388.886V128.432L432.832 126.506V183.894Z" fill="#66AFAB"/>
<path d="M436.636 207.207C436.636 207.207 419.008 206.985 412.395 218.227C405.781 229.469 412.616 266.932 412.616 266.932L422.533 268.035L421.209 278.173C421.209 278.173 441.043 288.972 457.352 279.936L457.573 260.102L459.779 249.963L466.392 245.994C466.392 245.994 461.388 226.873 459.119 222.191C455.623 214.986 445.677 210.949 445.677 210.949L436.641 207.202L436.636 207.207Z" fill="#66AFAB"/>
<path d="M325.149 351.115H312.351C311.518 351.115 310.81 350.513 310.68 349.689L309.914 344.974H327.687L326.815 349.723C326.666 350.527 325.968 351.11 325.149 351.11V351.115Z" fill="#66AFAB"/>
<path d="M440.403 217.408C440.046 217.215 439.777 216.907 439.517 216.594C437.445 214.114 435.827 211.257 434.758 208.209C437.479 204.64 439.724 200.603 440.581 196.196C440.856 194.775 440.99 193.326 441.409 191.938C442.546 188.182 445.86 185.234 449.67 184.304C453.48 183.375 457.665 184.391 460.781 186.78C461.904 187.637 464.678 188.745 465.102 189.93C465.685 191.553 464.148 194.221 463.117 195.344C462.684 195.816 462.193 196.235 461.831 196.765C461.302 197.54 461.099 198.479 460.892 199.394C460.136 202.751 459.129 206.215 456.764 208.714C454.4 211.214 450.305 212.394 447.44 210.492L446.992 221.897C446.982 222.148 446.968 222.412 446.809 222.61C446.38 223.149 445.537 222.615 445.089 222.095C444.073 220.91 442.744 220.081 441.727 218.896" fill="#E4EBEB"/>
<path d="M344.809 243.123C344.809 243.123 366.893 242.757 370.207 255.271C373.521 267.784 359.9 339.194 347.386 343.239C337.744 346.361 312.346 347.334 301.196 347.618C297.8 347.704 294.554 346.264 292.338 343.692L285.918 336.246L344.809 243.123Z" fill="#244949"/>
<path d="M289.757 339.752L292.676 325.89C292.676 325.89 302.887 332.311 317.914 331.873C332.942 331.434 343.591 327.494 343.591 327.494L344.901 325.423L342.902 299.202L355.266 254.693C355.266 254.693 357.891 254.11 359.789 257.318C361.687 260.526 354.683 289.998 351.765 301.235L349.429 307.511C349.429 307.511 348.383 327.533 344.882 333.804C341.38 340.075 289.757 339.752 289.757 339.752Z" fill="#1A3837"/>
<path d="M440.085 182.426C440.09 180.745 440.571 178.943 441.881 177.889C443.755 176.386 446.515 176.945 448.745 177.836C448.788 176.097 450.06 174.459 451.731 173.987C453.552 173.472 455.498 174.262 457.058 175.336C458.619 176.41 459.977 177.787 461.653 178.664C464.784 180.306 469.085 180.331 470.935 183.346C471.874 184.877 471.84 186.953 470.843 188.451C469.846 189.949 467.948 190.787 466.171 190.517C463.599 190.123 461.316 187.657 458.826 188.408C458.229 188.586 457.699 188.943 457.111 189.159C455.604 189.708 453.932 189.27 452.328 189.337C450.724 189.405 448.856 190.431 448.966 192.035C448.933 190.932 448.085 189.901 447.011 189.651C445.937 189.4 444.723 189.959 444.208 190.941C443.639 192.03 443.928 193.35 443.813 194.573C443.582 197.025 441.024 200.565 438.51 200.998L440.08 182.431L440.085 182.426Z" fill="#244949"/>
<path d="M305.309 236.106C304.899 231.785 304.047 227.508 303.868 223.178C303.69 218.848 304.235 214.345 306.421 210.598C308.295 207.39 311.344 204.885 314.855 203.671C318.366 202.458 322.311 202.544 325.769 203.912C327.72 204.683 329.502 205.844 331.125 207.173C336.418 211.503 340.026 217.577 342.651 223.891C345.276 230.206 347.024 236.843 349.279 243.302C349.91 245.108 350.593 246.924 351.677 248.499C352.761 250.074 354.307 251.408 356.166 251.885C353.931 253.142 351.547 254.124 349.081 254.808C345.035 255.931 340.806 256.234 336.611 256.383C325.129 256.798 313.607 256.09 302.26 254.283C302.939 254.389 304.403 251.215 304.629 250.671C305.126 249.462 305.391 248.253 305.468 246.957C305.689 243.35 305.651 239.704 305.313 236.106H305.309Z" fill="#244949"/>
<path d="M317.87 294.005C317.87 294.005 319.364 296.057 306.292 297.367L283.697 300.541L284.256 278.318C284.256 278.318 297.887 252.174 301.995 249.934C306.104 247.694 318.053 243.957 318.053 243.957L334.15 240.267C334.15 240.267 355.03 247.131 356.711 255.723C358.392 264.316 352.227 290.46 346.625 300.17L343.822 301.851C343.822 301.851 343.634 319.219 344.381 322.018C345.127 324.816 345.503 327.248 340.648 325.38C335.793 323.511 325.895 318.844 324.96 314.36L324.585 307.823L318.983 308.946L317.861 294.005H317.87Z" fill="#66AFAB"/>
<path d="M327.557 297.15C331.247 297.618 334.994 297.367 338.703 297.613C340.244 297.714 341.944 297.993 342.898 299.207C343.745 300.296 343.731 301.798 343.712 303.181C343.601 310.608 344.444 318.016 344.897 325.433C344.921 325.789 344.916 326.204 344.641 326.43C344.376 326.652 343.981 326.589 343.644 326.507C341.535 325.987 339.531 325.11 337.537 324.239C332.528 322.047 327.292 319.673 324.031 315.285C323.116 314.056 322.384 312.698 321.484 311.46C320.361 309.924 320.409 304.746 319.302 303.2C317.259 300.349 314.774 300.647 314.914 297.146C314.967 295.884 315.237 293.634 316.542 292.946C317.847 292.257 318.584 293.62 319.61 294.347C321.922 295.99 324.773 296.799 327.557 297.15Z" fill="#EDC36F"/>
<path d="M346.629 300.17C346.629 300.17 341.904 304.784 320.49 304.924C320.49 304.924 319.276 305.454 318.694 302.882C318.111 300.31 316.709 292.888 319.652 292.748C322.595 292.608 343.446 294.429 343.446 294.429L346.629 300.17Z" fill="#66AFAB"/>
<path d="M333.626 246.269C331.116 248.571 334.464 249.824 331.323 252.338C328.188 254.847 325.467 254.428 326.305 257.564C327.143 260.704 327.143 262.587 324.628 264.89C322.119 267.192 320.862 269.908 321.281 273.468C321.7 277.022 321.493 278.068 319.817 281.42C318.145 284.767 316.888 284.974 317.934 289.579C318.979 294.179 314.798 298.157 314.798 298.157L305.589 298.99C305.589 298.99 306.629 295.051 304.153 291.915C304.144 291.901 304.134 291.891 304.125 291.876C301.615 288.741 303.498 287.903 305.589 285.812C307.684 283.717 307.265 280.37 306.427 278.279C305.589 276.189 307.472 274.932 309.567 272.63C311.658 270.327 311.239 269.282 310.4 266.354C309.567 263.425 311.239 261.33 313.122 259.447C315.005 257.564 314.379 255.054 314.167 251.288C313.96 247.521 318.059 243.957 318.059 243.957C318.256 243.88 318.483 243.798 318.738 243.716H318.743C323.198 242.286 335.509 240.619 335.509 240.619C336.554 242.29 336.135 243.967 333.626 246.269Z" fill="#EDC36F"/>
<path d="M318.483 245.392C317.399 247.531 316.888 249.963 317.047 252.361C317.187 254.423 317.794 256.537 317.192 258.512C316.614 260.4 315.015 261.831 314.393 263.7C313.377 266.744 315.087 270.443 313.343 273.14C312.578 274.32 311.258 275.081 310.612 276.328C309.456 278.563 310.892 281.299 310.415 283.77C309.871 286.583 307.082 288.283 305.213 290.455C304.818 290.913 304.467 291.404 304.153 291.915C304.144 291.9 304.134 291.891 304.125 291.876C301.615 288.741 303.498 287.903 305.589 285.812C307.684 283.717 307.265 280.369 306.427 278.279C305.589 276.189 307.472 274.932 309.567 272.629C311.658 270.327 311.239 269.282 310.4 266.353C309.567 263.425 311.239 261.33 313.122 259.447C315.005 257.563 314.379 255.054 314.167 251.287C313.96 247.521 318.059 243.957 318.059 243.957C318.256 243.88 318.483 243.798 318.738 243.716H318.743C319.509 243.788 318.878 244.617 318.483 245.392Z" fill="#EBAB4C"/>
<path d="M266.695 392.994C266.695 392.994 249.944 404.231 245.575 404.332C245.575 404.332 243.388 407.453 245.161 408.181L267.322 404.747L268.675 401.938L269.821 404.332H274.166C275.148 404.332 275.938 403.523 275.919 402.541L275.649 391.015L266.7 392.989L266.695 392.994Z" fill="#244949"/>
<path d="M266.166 390.547L265.867 395.344C265.867 395.344 271.926 396.245 275.346 391.987L266.166 390.547Z" fill="#E4EBEB"/>
<path d="M248.479 356.095L244.192 363.19C244.192 363.19 248.272 366.436 253.219 364.37C254.606 363.792 255.28 361.2 256.908 359.943L248.484 356.095H248.479Z" fill="#E4EBEB"/>
<path d="M308.382 215.12C308.382 215.12 311.045 217.341 316.825 217.254C322.605 217.167 326.333 222.143 327.489 225.875C327.489 225.875 327.046 221.608 329.531 222.855C332.016 224.103 331.665 228.809 329.618 229.252C329.618 229.252 329.083 231.472 330.952 234.67C332.821 237.869 334.15 240.267 334.15 240.267C334.15 240.267 326.506 251.466 321.444 254.307L319.31 241.51C319.31 241.51 314.243 242.131 310.602 234.314C310.602 234.314 309.268 230.494 308.56 227.739C308.56 227.739 304.119 221.252 308.382 215.12Z" fill="#E4EBEB"/>
<path d="M342.71 325.939C342.71 325.939 338.871 335.591 325.794 335.403C312.717 335.215 305.079 330.288 305.079 330.288L293.625 325.337C293.625 325.337 287.619 355.44 282.017 370.381C276.415 385.321 276.04 392.228 276.04 392.228C276.04 392.228 268.569 391.482 265.583 390.923L268.757 351.707L260.916 361.417C260.916 361.417 250.271 359.736 247.285 356.374L273.087 311.792C274.272 309.745 275.756 307.891 277.49 306.287L282.879 302.853L324.595 304.274L342.71 325.939Z" fill="#244949"/>
<path d="M317.87 294.005L304.822 295.055L308.001 301.509L318.699 302.877L317.87 294.005Z" fill="#E4EBEB"/>
<path d="M256.831 276.151L299.862 275.134L311.831 305.97L268.545 305.714L256.831 276.151Z" fill="#244949"/>
<path opacity="0.26" d="M319.315 241.515C319.315 241.515 323.655 241.914 327.817 237.502C327.817 237.502 325.167 243.364 320.125 246.331L319.315 241.519V241.515Z" fill="#66AFAB"/>
<path d="M91.8467 378.125L96.013 372.697L102.799 378.029L102.024 380.938C102.024 380.938 96.2104 382.489 91.8467 378.125Z" fill="#E4EBEB"/>
<path d="M166.097 271.522C166.097 271.522 181.775 322.716 181.775 323.448C181.775 324.181 181.529 388.51 181.529 388.51C181.529 388.51 171.501 389.488 167.831 387.778C167.831 387.778 168.322 363.074 165.139 352.555C161.955 342.035 163.183 323.203 163.183 323.203L157.312 314.644L154.133 332.99C154.133 332.99 109.128 375.303 102.278 379.465C102.278 379.465 97.3849 377.509 94.6973 373.107L117.446 343.755C122.094 336.174 137.256 321.252 137.256 321.252C137.256 321.252 135.546 302.665 134.077 296.057C132.608 289.449 132.608 276.247 134.077 269.884L166.097 271.522Z" fill="#244949"/>
<path d="M148.301 181.053C148.243 181.679 148.137 182.305 148.19 182.936C148.272 183.924 148.748 184.824 149.163 185.725C149.75 187.006 151.826 188.205 151.86 189.617C151.874 190.209 150.55 190.806 150.049 191.428C149.548 192.049 149.861 192.709 149.712 193.287L148.739 197.116C148.464 198.2 148.18 199.307 147.554 200.232C146.518 201.769 144.548 202.612 142.723 202.303C142.709 203.503 143.932 204.48 143.845 205.675C143.821 205.978 143.71 206.282 143.527 206.523C143.065 207.134 142.251 207.332 141.5 207.462C138.537 207.963 135.489 207.958 132.526 207.452C130.72 207.144 128.779 206.532 127.797 204.981C127.103 203.888 128.476 205.608 128.553 204.317C128.678 202.159 129.218 197.265 129.367 195.112C129.608 191.707 127.479 187.936 128.076 184.574C128.89 179.993 131.92 176.102 135.359 172.971C136.64 171.805 138.118 170.669 139.852 170.572C142.184 170.447 144.168 172.234 146.446 172.74C146.894 172.841 147.381 172.903 147.713 173.216C148.214 173.693 147.742 174.055 147.694 174.531C147.631 175.186 147.968 176.039 148.079 176.694C148.31 178.129 148.455 179.594 148.32 181.043L148.301 181.053Z" fill="#E4EBEB"/>
<path opacity="0.26" d="M139.159 177.6C138.899 179.387 139.289 181.193 139.501 182.989C139.713 184.786 139.704 186.717 138.755 188.249C137.806 189.781 135.619 190.667 134.112 189.67C133.341 190.397 133.36 191.616 133.538 192.661C133.717 193.706 133.986 194.819 133.558 195.787C133.225 196.533 132.522 197.054 132.093 197.752C131.776 198.277 131.621 198.884 131.52 199.491C131.198 201.412 131.366 203.416 131.997 205.256C131.111 205.039 130.162 204.784 129.594 204.071C128.939 203.248 128.996 202.082 129.126 201.037C129.415 198.734 129.902 196.447 129.945 194.125C130.018 190.214 128.818 186.265 129.594 182.431C130.499 177.937 134.309 174.175 138.812 173.327C139.862 173.13 140.99 173.058 141.871 172.456C141.389 172.783 140.893 174.146 140.484 174.69C139.805 175.601 139.328 176.453 139.159 177.6Z" fill="#66AFAB"/>
<path d="M118.582 229.257L116.699 241.288C116.439 242.95 117.027 244.626 118.274 245.753C121.607 248.773 128.399 254.524 132.796 255.488L128.095 235.817L118.587 229.262L118.582 229.257Z" fill="#E4EBEB"/>
<path d="M128.35 202.814L127.353 203.931C124.743 206.86 122.826 210.342 121.747 214.114L117.484 229.035C117.484 229.035 120.687 234.285 126.178 235.894C126.178 235.894 132.743 260.005 132.473 268.844V274.739C132.473 274.739 156.715 282.508 166.093 271.526L164.888 242.194V229.469L165.958 225.452L156.758 216.257C156.758 216.257 148.811 206.966 143.99 204.957C143.99 204.957 130.662 208.83 128.346 202.819L128.35 202.814Z" fill="#EDC36F"/>
<path d="M136.221 227.72L154.114 242.791L155.328 240.874L163.275 228.414L164.821 244.833L165.601 261.436L136.221 227.72Z" fill="#EBAB4C"/>
<path d="M128.976 198.807C128.976 198.807 131.51 196.919 132.488 192.719C132.488 192.719 132.488 191.447 131.707 189.882C130.927 188.316 130.532 184.41 133.172 185.19C135.811 185.971 135.715 188.027 135.715 188.027C135.715 188.027 138.06 185.585 137.473 183.336C136.885 181.087 136.201 176.102 140.112 174.344C140.112 174.344 152.722 176.102 154.186 172.778C155.65 169.455 154.87 162.611 149.297 162.22C143.725 161.83 145.29 165.448 139.717 164.86C134.145 164.272 126.621 160.853 123.881 166.425C123.881 166.425 123.683 167.697 124.078 168.968C124.078 168.968 122.123 169.262 121.145 174.344C120.398 178.216 123.283 186.91 124.704 190.831C125.157 192.078 125.72 193.282 126.395 194.428L128.972 198.811L128.976 198.807Z" fill="#244949"/>
<path d="M164.537 226.314L173.072 232.296C173.072 232.296 192.656 210.077 196.505 206.06C200.353 202.043 212.235 181.125 212.235 181.125C212.235 181.125 214.745 182.633 212.404 186.982C210.063 191.331 208.724 193.34 208.724 193.34C208.724 193.34 213.743 197.525 214.581 200.367C215.419 203.209 213.073 207.062 210.232 208.57C207.39 210.077 204.707 210.241 204.707 210.241C204.707 210.241 188.225 239.607 178.476 250.469C177.267 251.812 175.293 252.14 173.722 251.254L155.333 240.874L164.537 226.314Z" fill="#E4EBEB"/>
<path d="M483.472 225.254H545.114C546.858 225.254 548.274 223.838 548.274 222.094V186.067C548.274 184.323 546.858 182.907 545.114 182.907H480.014C478.271 182.907 476.854 184.323 476.854 186.067V231.79L483.472 225.254Z" fill="#66AFAB"/>
<path d="M486.217 222.282H547.859C549.603 222.282 551.019 220.866 551.019 219.123V183.095C551.019 181.352 549.603 179.936 547.859 179.936H482.759C481.016 179.936 479.6 181.352 479.6 183.095V228.818L486.217 222.282Z" fill="white" stroke="#244949" stroke-width="0.755424" stroke-miterlimit="10"/>
<path d="M272.745 258.348H237.912C236.925 258.348 236.13 257.549 236.13 256.566V236.207C236.13 235.22 236.929 234.425 237.912 234.425H274.701C275.688 234.425 276.483 235.224 276.483 236.207V262.043L272.745 258.348Z" fill="#66AFAB"/>
<path d="M270.761 260.116H235.928C234.94 260.116 234.146 259.316 234.146 258.334V237.974C234.146 236.987 234.945 236.192 235.928 236.192H272.716C273.704 236.192 274.498 236.992 274.498 237.974V263.81L270.761 260.116Z" fill="white" stroke="#244949" stroke-width="0.430592" stroke-miterlimit="10"/>
<path d="M244.13 160.386C239.544 145.372 244.905 128.987 253.103 115.597C256.855 109.465 261.378 103.541 267.605 99.9431C273.828 96.35 282.074 95.5312 288.076 99.4904C296.086 104.774 296.986 117.644 290.474 124.69C283.962 131.737 272.051 132.344 264.181 126.853C256.311 121.362 252.703 110.867 254.36 101.417C256.017 91.967 262.408 83.7211 270.529 78.6108C278.655 73.5005 288.365 71.3186 297.954 71.0778C302.342 70.967 306.797 71.2415 311.06 70.1963C315.323 69.1512 319.494 66.4635 320.905 62.3069" stroke="#244949" stroke-width="0.755424" stroke-miterlimit="10"/>
<path d="M187.642 108.699L459.837 98.2859" stroke="#244949" stroke-width="0.755424" stroke-miterlimit="10"/>
<path d="M92.1162 376.965C92.1162 376.965 97.5155 383.082 102.284 379.465C102.284 379.465 104.61 387.527 107.25 388.341C109.889 389.155 115.173 390.273 115.78 392.098V395.552H103.488L95.5408 389.464C94.5967 388.741 94.2451 387.474 94.6786 386.367L95.0591 385.399L92.3185 386.776L88.0366 382.672C87.6128 382.239 87.6128 381.55 88.0366 381.117L92.1114 376.97L92.1162 376.965Z" fill="#244949"/>
<path d="M168.145 389.805V398.037H176.376L177.479 395.98L179.391 397.892H198.07C198.855 397.892 199.437 397.146 199.225 396.39C198.869 395.123 197.973 393.35 195.709 392.305C191.827 390.513 184.839 390.75 181.53 388.515C181.53 388.515 174.247 393.114 168.145 389.805Z" fill="#244949"/>
<path d="M245.81 362.294C245.81 362.294 244.741 361.311 243.402 362.202C242.063 363.093 231.183 368.623 227.97 368.979C224.757 369.335 225.027 373.887 227.435 373.974C229.844 374.06 244.563 373.439 244.563 373.439L246.345 371.301L247.506 373.709L254.032 373.564C254.817 373.545 255.443 372.904 255.443 372.124V361.403C255.443 361.403 250.092 365.328 245.81 362.294Z" fill="#244949"/>
<path d="M343.119 258.815C340.778 266.493 338.601 274.223 336.588 281.993C336.015 284.203 335.456 286.414 334.912 288.63C334.762 289.232 335.692 289.487 335.841 288.885C337.763 281.092 339.844 273.337 342.093 265.631C342.734 263.439 343.384 261.253 344.049 259.071C344.232 258.478 343.302 258.223 343.119 258.815Z" fill="#244949"/>
<path d="M318.295 293.504C324.007 292.358 329.652 290.923 335.215 289.198C335.808 289.015 335.552 288.086 334.96 288.269C329.397 289.993 323.747 291.428 318.039 292.575C317.433 292.695 317.688 293.625 318.295 293.504Z" fill="#244949"/>
<path d="M317.365 293.909C317.924 297.405 318.242 300.941 318.555 304.466C318.608 305.078 319.571 305.083 319.518 304.466C319.2 300.854 318.868 297.237 318.295 293.653C318.199 293.042 317.269 293.302 317.365 293.909Z" fill="#244949"/>
<path d="M342.444 327.191C342.444 327.191 338.784 336.679 320.751 335.157C308.199 334.098 291.052 323.993 291.052 323.993C291.052 323.993 265.944 355.064 260.925 359.144" stroke="#EDC36F" stroke-width="0.755424" stroke-miterlimit="10"/>
<path d="M281.651 306.321C281.651 306.321 278.79 307.14 275.722 311.436C272.653 315.733 249.746 356.432 249.746 356.432" stroke="#66AFAB" stroke-width="0.755424" stroke-miterlimit="10"/>
<path d="M346.153 246.895C349.25 249.264 351.023 253.045 351.692 256.884C352.362 260.723 352.02 264.663 351.562 268.535C351.177 271.772 350.714 274.994 350.175 278.207C349.443 282.575 348.542 287.016 346.307 290.84C345.556 292.122 344.645 293.34 343.446 294.222C342.425 294.973 341.235 295.45 340.051 295.898C333.404 298.407 327.239 299.342 320.206 300.358C320.019 300.387 319.816 300.42 319.696 300.57C319.566 300.729 319.585 300.955 319.609 301.157L319.937 303.922C329.131 304.437 337.686 303.667 346.168 300.074C346.168 300.074 353.118 284.29 355.333 269.19C357.549 254.09 353.946 252.154 351.596 250.353C349.245 248.551 346.158 246.904 346.158 246.904L346.153 246.895Z" fill="#069299"/>
<path d="M303.291 255.545C301.706 261.287 299.857 266.956 297.752 272.528C296.702 275.312 295.585 278.067 294.405 280.798C293.225 283.529 291.996 286.039 290.85 288.683C289.603 291.568 288.572 294.554 288.384 297.719C288.345 298.34 289.309 298.335 289.347 297.719C289.516 294.863 290.426 292.132 291.534 289.516C292.642 286.901 293.942 284.252 295.098 281.603C297.415 276.276 299.496 270.852 301.326 265.342C302.371 262.192 303.334 259.008 304.221 255.81C304.384 255.213 303.455 254.958 303.291 255.555V255.545Z" fill="#244949"/>
<path d="M340.594 309.249C340.464 311.041 340.016 313.247 338.287 313.719C337.247 314.003 336.168 313.493 335.243 312.929C333.495 311.865 331.891 310.559 330.494 309.061C334.169 314.884 337.945 320.833 343.369 325.076C344.13 323.704 343.903 322.027 343.711 320.472C342.93 314.172 343.08 307.799 343.229 301.456C343.224 301.764 341.837 302.227 341.601 302.506C341.095 303.103 341.24 303.045 340.98 303.888C340.498 305.454 340.715 307.616 340.599 309.249H340.594Z" fill="#EBAB4C"/>
<path opacity="0.26" d="M326.203 225.885C327.952 229.021 328.722 232.725 328.188 236.274C328.9 235.345 329.021 234.083 328.91 232.913C328.799 231.742 328.486 230.601 328.438 229.425C328.428 229.18 328.433 228.924 328.505 228.693C328.602 228.395 328.809 228.144 328.977 227.884C329.936 226.429 329.854 224.368 328.785 222.995C328.298 224.06 327.874 225.148 327.513 226.261C327.802 225.365 324.498 222.374 323.877 221.81C322.48 220.544 320.804 219.311 319.036 218.646C321.974 220.447 324.508 222.856 326.193 225.885H326.203Z" fill="#66AFAB"/>
<path opacity="0.26" d="M158.83 237.32L175.057 246.013C175.057 246.013 196.114 222.446 201.331 210.275C201.331 210.275 187.421 239.251 176.988 249.684C176.988 249.684 175.249 250.454 171.964 248.913C168.68 247.372 156.894 240.026 156.894 240.026L158.825 237.32H158.83Z" fill="#66AFAB"/>
<path opacity="0.26" d="M442.738 205.203C442.738 205.203 445.32 209.572 447.439 210.496L447.285 214.754C447.285 214.754 442.888 210.814 442.738 205.203Z" fill="#66AFAB"/>
<path d="M138.456 285.576C138.456 285.576 149.274 306.875 157.313 314.649L155.733 324.537C155.733 324.537 143.831 308.074 138.451 285.576H138.456Z" fill="#1A3837"/>
<path d="M415.289 216.103C415.289 216.103 411.768 220.755 411.209 227.595C409.914 243.538 413.989 265.409 413.989 265.409C413.989 265.409 433.226 267.447 449.168 261.888C449.168 261.888 423.814 265.597 416.585 261.147C416.585 261.147 413.989 247.058 414.547 225.928C414.783 216.941 417.885 213.877 417.885 213.877L415.289 216.103Z" fill="#069299"/>
<path d="M450.806 250.825C450.806 250.825 454.578 250.7 455.96 250.069C457.342 249.438 459.731 246.548 463.878 246.047L465.511 245.922L462.496 249.568C462.496 249.568 464.885 252.333 467.274 252.333C469.663 252.333 473.559 251.451 473.559 251.451L478.463 247.93C478.463 247.93 480.095 249.944 477.962 252.834C475.828 255.723 472.307 260.251 469.037 259.87C465.766 259.49 466.522 258.989 466.522 258.989C466.522 258.989 460.487 259.996 456.971 258.108L455.464 257.351L450.561 259.365L450.811 250.815L450.806 250.825Z" fill="#E4EBEB"/>
<path d="M423.049 219.788C424.398 228.245 425.438 236.756 426.17 245.291C426.377 247.704 426.555 250.117 426.714 252.53C426.753 253.147 427.716 253.152 427.678 252.53C427.119 243.933 426.247 235.364 425.067 226.829C424.73 224.392 424.369 221.96 423.979 219.532C423.882 218.921 422.953 219.181 423.049 219.788Z" fill="#244949"/>
<path d="M427.071 252.054C434.57 251.37 442.079 250.859 449.603 250.517C450.219 250.488 450.224 249.525 449.603 249.554C442.084 249.896 434.57 250.411 427.071 251.09C426.459 251.148 426.454 252.111 427.071 252.054Z" fill="#244949"/>
<path d="M450.103 249.481C450.45 253.878 450.339 258.295 449.776 262.669C449.699 263.28 450.662 263.275 450.739 262.669C451.303 258.295 451.413 253.878 451.067 249.481C451.019 248.869 450.055 248.86 450.103 249.481Z" fill="#244949"/>
<path d="M434.589 206.826C430.842 207.279 427.123 208.03 423.521 209.167C420.607 210.087 417.726 211.33 415.376 213.319C412.761 215.534 411.34 218.588 410.516 221.858C409.591 225.533 409.23 229.343 409.201 233.129C409.143 240.913 410.405 248.672 411.441 256.369C411.701 258.31 411.966 260.246 412.226 262.187C412.366 263.213 412.491 264.244 412.645 265.27C412.751 265.973 413.04 266.546 413.782 266.719C414.629 266.917 415.549 266.941 416.411 267.028C417.341 267.119 418.275 267.191 419.21 267.244C421.079 267.36 422.947 267.408 424.821 267.389C432.344 267.326 439.868 266.223 447.088 264.109C447.984 263.844 448.88 263.565 449.766 263.276C450.353 263.083 450.103 262.153 449.511 262.346C442.652 264.605 435.509 265.954 428.299 266.32C424.71 266.503 421.112 266.45 417.534 266.156C416.715 266.088 415.896 266.011 415.077 265.915C414.687 265.872 413.96 265.93 413.705 265.573C413.449 265.217 413.502 264.465 413.449 264.061C413.199 262.202 412.944 260.347 412.693 258.488C411.696 251.099 410.492 243.672 410.217 236.216C410.083 232.537 410.203 228.828 410.81 225.191C411.364 221.878 412.202 218.338 414.384 215.688C416.566 213.039 419.653 211.503 422.798 210.414C426.603 209.099 430.601 208.271 434.594 207.785C435.201 207.712 435.21 206.744 434.594 206.821L434.589 206.826Z" fill="#244949"/>
<path d="M434.609 207.534C437.171 213.56 441.125 218.949 446.106 223.202C446.438 223.486 446.886 223.284 446.929 222.86L447.96 212.37C448.023 211.753 447.059 211.758 446.997 212.37L445.966 222.86L446.79 222.518C441.867 218.314 437.975 213.006 435.442 207.048C435.201 206.479 434.368 206.971 434.609 207.534Z" fill="#244949"/>
<path d="M435.408 207.554C436.877 206.316 437.657 204.428 438.466 202.737C439.405 200.772 440.277 198.768 441.086 196.745C441.317 196.167 440.383 195.922 440.157 196.49C439.381 198.436 438.538 200.358 437.633 202.251C436.862 203.869 436.13 205.694 434.728 206.875C434.252 207.274 434.94 207.953 435.408 207.554Z" fill="#244949"/>
<path d="M465.174 190.335C464.731 191.674 464.172 192.969 463.483 194.207C462.794 195.445 461.971 196.481 461.296 197.67C460.189 199.626 459.813 201.861 459.288 204.018C458.763 206.176 458.06 208.329 456.234 209.644C454.409 210.959 451.856 211.2 449.722 210.458C447.208 209.586 445.301 207.506 444.13 205.179C443.851 204.625 443.023 205.112 443.297 205.666C445.469 209.981 450.368 213.228 455.237 211.272C457.463 210.381 458.859 208.512 459.64 206.297C460.42 204.081 460.656 201.543 461.576 199.289C462.202 197.762 463.276 196.485 464.1 195.069C464.923 193.653 465.588 192.146 466.103 190.59C466.301 190.002 465.366 189.747 465.174 190.335Z" fill="#244949"/>
<path d="M447.242 210.603L447.059 212.081C447.045 212.197 447.122 212.346 447.199 212.423C447.281 212.505 447.421 212.568 447.541 212.563C447.661 212.558 447.796 212.515 447.883 212.423L447.96 212.327C448.003 212.25 448.028 212.173 448.028 212.086L448.211 210.607C448.225 210.492 448.148 210.342 448.071 210.265C447.989 210.184 447.849 210.121 447.729 210.126C447.608 210.131 447.474 210.174 447.387 210.265L447.31 210.362C447.266 210.439 447.242 210.516 447.242 210.603Z" fill="#244949"/>
<path d="M447.131 212.514C451.254 214.499 455.314 217.119 457.53 221.261C458.758 223.559 459.423 226.116 460.16 228.602L462.534 236.655L465.251 245.859C465.424 246.452 466.354 246.201 466.18 245.604L461.224 228.804C460.482 226.285 459.808 223.713 458.652 221.343C457.612 219.209 456.09 217.365 454.279 215.833C452.265 214.138 449.978 212.818 447.613 211.681C447.059 211.411 446.567 212.245 447.126 212.514H447.131Z" fill="#244949"/>
<path d="M454.958 222.966C455.671 231.472 456.629 239.954 457.829 248.402C457.915 249.014 458.845 248.754 458.758 248.147C457.573 239.781 456.634 231.386 455.926 222.966C455.873 222.355 454.91 222.35 454.963 222.966H454.958Z" fill="#244949"/>
<path d="M451.38 251.254C452.892 250.984 454.434 250.786 455.922 250.425C457.227 250.107 458.075 249.399 459.004 248.47C460.011 247.468 461.186 246.977 462.602 246.924C463.782 246.88 464.919 246.89 465.892 246.129C466.379 245.748 465.695 245.069 465.213 245.45C464.283 246.177 462.891 245.888 461.803 246.023C460.604 246.172 459.501 246.702 458.609 247.521C458.171 247.925 457.786 248.397 457.314 248.768C456.774 249.192 456.139 249.399 455.474 249.544C454.039 249.857 452.574 250.069 451.129 250.329C450.518 250.44 450.778 251.364 451.385 251.258L451.38 251.254Z" fill="#244949"/>
<path d="M464.866 246.177C464.168 247.304 463.335 248.32 462.372 249.231C462.188 249.404 462.184 249.736 462.372 249.91C463.966 251.412 465.767 253.021 468.055 253.195C469.322 253.291 470.584 252.877 471.744 252.414C472.905 251.952 474.109 251.326 475.198 250.603C475.713 250.261 475.232 249.428 474.711 249.77C473.724 250.425 472.684 250.993 471.585 251.441C470.487 251.889 469.394 252.284 468.243 252.241C466.157 252.159 464.481 250.574 463.051 249.226V249.905C464.072 248.942 464.953 247.848 465.695 246.654C466.022 246.124 465.189 245.642 464.862 246.167L464.866 246.177Z" fill="#244949"/>
<path d="M450.956 259.948L453.292 258.898C453.609 258.753 454.062 258.454 454.414 258.421C454.79 258.382 455.247 258.734 455.565 258.902C456.885 259.586 458.267 260.188 459.746 260.415C462.38 260.819 465.116 260.145 467.25 258.551C467.741 258.185 467.26 257.347 466.763 257.718C464.495 259.413 461.552 260.01 458.821 259.225C458.065 259.008 457.337 258.705 456.629 258.363C456.032 258.074 455.406 257.597 454.746 257.477C454.086 257.356 453.388 257.804 452.805 258.069L450.469 259.119C449.906 259.374 450.392 260.203 450.956 259.952V259.948Z" fill="#244949"/>
<path d="M473.145 250.97C472.49 252.429 471.055 253.219 469.634 253.792C468.314 254.327 465.858 255.516 464.74 254.028C464.374 253.537 463.536 254.018 463.907 254.515C465.338 256.417 467.808 255.531 469.639 254.818C471.363 254.148 473.184 253.229 473.978 251.451C474.229 250.888 473.4 250.401 473.145 250.965V250.97Z" fill="#244949"/>
<path d="M463.035 257.274C463.329 257.154 463.584 257.332 463.849 257.462C464.162 257.612 464.48 257.751 464.837 257.761C465.26 257.775 465.655 257.616 466.041 257.462C466.474 257.284 466.912 257.106 467.346 256.928C468.714 256.369 470.409 255.921 471.387 254.736C471.777 254.259 471.103 253.575 470.708 254.057C470.274 254.582 469.696 254.905 469.08 255.179C468.328 255.512 467.563 255.805 466.802 256.114C466.416 256.273 466.031 256.431 465.646 256.586C465.284 256.73 464.933 256.865 464.552 256.72C463.97 256.504 463.435 256.08 462.785 256.345C462.216 256.576 462.467 257.51 463.04 257.274H463.035Z" fill="#244949"/>
<path d="M462.048 258.483C463.941 259.254 466.2 259.003 467.886 257.852C468.396 257.505 467.915 256.667 467.399 257.019C465.901 258.045 463.984 258.242 462.303 257.554C462.063 257.457 461.774 257.66 461.711 257.891C461.634 258.165 461.807 258.387 462.048 258.483Z" fill="#244949"/>
<path d="M478.94 246.948C478.511 247.526 478.564 248.2 478.613 248.879C478.68 249.765 478.42 250.416 477.991 251.177C477.168 252.641 476.233 254.052 475.193 255.377C474.234 256.6 473.17 258.021 471.879 258.912C470.285 260.005 468.527 259.239 466.986 258.45C466.436 258.165 465.945 258.999 466.499 259.283C468.055 260.078 469.861 260.882 471.595 260.164C473.136 259.524 474.311 257.968 475.342 256.72C476.513 255.304 477.572 253.802 478.502 252.217C478.921 251.509 479.398 250.758 479.547 249.939C479.696 249.12 479.258 248.128 479.764 247.444C480.135 246.948 479.297 246.466 478.93 246.957L478.94 246.948Z" fill="#244949"/>
<path d="M422.562 267.403L421.58 272.803L421.113 275.384C420.987 276.088 420.756 276.849 420.973 277.552C421.363 278.833 422.962 279.363 424.055 279.844C425.491 280.475 426.955 281.039 428.443 281.525C434.594 283.539 441.207 284.309 447.652 283.664C451.047 283.327 454.452 282.522 457.323 280.605C457.838 280.263 457.357 279.43 456.837 279.772C454.399 281.395 451.553 282.205 448.673 282.58C445.792 282.956 442.806 282.999 439.883 282.792C436.81 282.571 433.761 282.041 430.789 281.222C429.387 280.837 428.005 280.384 426.647 279.869C425.288 279.353 423.829 278.857 422.62 278.067C422.336 277.879 422.018 277.629 421.902 277.292C421.753 276.839 421.917 276.319 421.999 275.871L422.466 273.289L423.487 267.659C423.598 267.052 422.668 266.792 422.558 267.403H422.562Z" fill="#244949"/>
<path d="M457.173 259.952C456.085 266.643 455.998 273.448 456.913 280.163C456.995 280.774 457.925 280.514 457.843 279.907C456.956 273.376 457.043 266.715 458.103 260.208C458.204 259.601 457.274 259.341 457.173 259.952Z" fill="#244949"/>
<path d="M431.916 207.833C432.046 211.262 431.95 214.696 431.632 218.116C431.584 218.607 432.302 218.747 432.528 218.357C433.226 217.148 434.069 215.693 435.447 215.178C437.113 214.552 438.727 215.751 439.979 216.724C440.461 217.1 441.15 216.425 440.658 216.045C439.16 214.879 437.325 213.574 435.326 214.205C433.607 214.749 432.557 216.397 431.7 217.875L432.595 218.116C432.918 214.696 433.01 211.262 432.88 207.833C432.856 207.216 431.892 207.212 431.916 207.833Z" fill="#244949"/>
<path d="M448.846 213.131C449.77 215.183 450.71 217.234 451.658 219.277L452.203 218.569C451.186 218.429 450.382 217.692 449.375 217.533C448.528 217.403 447.521 217.615 447.117 218.458C446.847 219.012 447.68 219.503 447.95 218.944C448.22 218.386 448.976 218.39 449.506 218.549C450.348 218.805 451.056 219.378 451.947 219.498C452.371 219.556 452.68 219.195 452.492 218.79C451.543 216.748 450.604 214.701 449.679 212.644C449.573 212.408 449.226 212.351 449.019 212.471C448.773 212.615 448.74 212.89 448.846 213.131Z" fill="#244949"/>
<path d="M446.077 222.971L446.987 240.527C447.021 241.144 447.984 241.149 447.951 240.527L447.04 222.971C447.007 222.355 446.043 222.35 446.077 222.971Z" fill="#244949"/>
<path d="M317.476 242.623C321.045 242.363 325.023 241.558 327.037 238.268C327.359 237.739 326.526 237.252 326.203 237.782C324.383 240.759 320.679 241.423 317.476 241.659C316.859 241.703 316.855 242.666 317.476 242.623Z" fill="#244949"/>
<path d="M318.203 242.613C319.802 246.514 320.799 250.637 321.131 254.842C321.17 255.319 321.757 255.492 322.027 255.083C325.784 249.467 332.253 245.869 334.622 239.304C334.834 238.721 333.905 238.466 333.693 239.049C331.376 245.469 324.883 249.081 321.194 254.596L322.09 254.837C321.753 250.546 320.76 246.336 319.128 242.353C318.896 241.789 317.962 242.035 318.198 242.608L318.203 242.613Z" fill="#244949"/>
<path d="M334.435 240.252C335.707 241.534 335.832 243.634 334.96 245.17C334.743 245.551 334.469 245.897 334.132 246.182C333.742 246.509 333.255 246.682 332.85 246.996C331.955 247.684 332.128 248.701 332.378 249.669C332.566 250.401 332.653 251.075 332.094 251.653C331.666 252.096 331.064 252.361 330.505 252.597C329.281 253.112 327.889 253.454 326.878 254.36C326.445 254.75 326.131 255.261 326.025 255.834C325.838 256.889 326.382 257.799 326.835 258.704C328.077 261.18 326.343 263.482 324.735 265.289C323.988 266.127 323.222 266.965 322.635 267.928C322.047 268.891 321.705 269.99 321.556 271.126C321.243 273.534 321.758 276.005 321.257 278.394C320.703 281.015 318.439 282.744 317.712 285.287C316.908 288.1 317.837 291.062 317.192 293.894C317.052 294.496 317.982 294.756 318.122 294.149C318.709 291.572 318.03 288.938 318.459 286.351C318.887 283.765 320.828 282.262 321.758 280.027C322.688 277.792 322.37 275.288 322.403 272.913C322.418 271.661 322.534 270.384 323.039 269.229C323.545 268.073 324.388 267.124 325.216 266.194C326.709 264.518 328.439 262.51 328.241 260.096C328.14 258.883 327.379 258.016 327.042 256.889C326.825 256.171 326.998 255.535 327.557 255.044C329.272 253.532 333.554 253.58 333.501 250.55C333.491 249.91 333.217 249.322 333.135 248.696C333.024 247.858 333.65 247.66 334.247 247.285C335.076 246.769 335.692 245.984 336.063 245.083C336.824 243.243 336.535 241.009 335.114 239.573C334.676 239.135 333.997 239.814 334.435 240.252Z" fill="#244949"/>
<path d="M318.083 243.701C315.169 244.404 314.018 247.549 313.729 250.223C313.368 253.522 314.297 257.38 311.73 260.015C310.574 261.2 309.433 262.23 309.428 264.008C309.423 265.578 310.112 267.042 310.401 268.559C310.54 269.291 310.569 270.076 310.285 270.78C310.001 271.483 309.394 272.075 308.816 272.586C307.607 273.66 306.413 274.671 306.095 276.343C305.714 278.351 306.519 280.311 306.355 282.315C306.239 283.76 305.464 285.754 303.735 285.682C303.113 285.658 303.118 286.621 303.735 286.645C305.107 286.703 306.167 285.778 306.731 284.584C307.419 283.119 307.376 281.631 307.169 280.061C306.933 278.24 306.61 276.241 307.915 274.734C308.922 273.578 310.382 272.798 311.065 271.367C311.749 269.937 311.407 268.415 311.003 266.974C310.598 265.534 309.948 263.791 310.854 262.37C311.335 261.614 312.082 261.074 312.669 260.414C313.214 259.808 313.623 259.114 313.917 258.353C314.538 256.754 314.586 254.981 314.601 253.286C314.625 250.314 314.673 245.502 318.343 244.621C318.945 244.477 318.69 243.547 318.088 243.691L318.083 243.701Z" fill="#244949"/>
<path d="M306.913 295.503C310.56 295.296 314.177 294.896 317.779 294.294C318.391 294.193 318.131 293.263 317.524 293.365C314.008 293.952 310.473 294.338 306.913 294.54C306.297 294.574 306.292 295.537 306.913 295.503Z" fill="#244949"/>
<path d="M285.127 277.499C287.81 272.591 290.608 267.746 293.518 262.972C294.982 260.569 296.475 258.18 297.997 255.81C299.365 253.686 300.651 251.37 302.852 249.997C305.053 248.624 307.433 248.003 309.234 246.221C309.677 245.782 308.993 245.103 308.555 245.542C306.912 247.17 304.639 247.834 302.679 248.981C300.521 250.242 299.187 252.203 297.853 254.259C294.794 258.984 291.846 263.786 289.009 268.651C287.401 271.416 285.826 274.205 284.289 277.017C283.991 277.562 284.824 278.048 285.122 277.504L285.127 277.499Z" fill="#244949"/>
<path d="M309.412 347.531C309.282 348.962 310.159 350.459 311.401 351.158C312.644 351.856 314.32 351.64 315.712 351.625C317.586 351.606 319.464 351.625 321.343 351.659C323.019 351.692 325.042 351.611 326.434 350.541C327.744 349.535 328.221 347.806 327.898 346.226C327.773 345.619 326.843 345.874 326.968 346.481C327.315 348.176 326.429 349.761 324.786 350.301C322.807 350.951 320.659 350.618 318.612 350.657C317.668 350.676 316.728 350.652 315.789 350.657C314.985 350.657 314.185 350.715 313.381 350.667C312.577 350.618 311.859 350.44 311.267 349.838C310.674 349.236 310.298 348.393 310.375 347.526C310.433 346.91 309.465 346.915 309.412 347.526V347.531Z" fill="#244949"/>
<path d="M322.21 351.586L322.012 359.534L321.612 375.708L321.285 389.035C321.266 389.733 321.227 390.436 321.237 391.14C321.251 392.589 320.803 395.128 318.886 394.983C316.56 394.805 316.834 391.395 316.748 389.806L314.942 355.941L314.72 351.75C314.686 351.134 313.723 351.129 313.757 351.75L315.626 386.81L315.862 391.236C315.915 392.204 315.929 393.172 316.358 394.063C316.753 394.882 317.302 395.556 318.198 395.826C319.002 396.067 319.951 395.956 320.625 395.436C322.137 394.28 322.171 392.219 322.215 390.489L322.504 378.809L322.923 361.788C323.004 358.44 323.202 355.078 323.173 351.731C323.173 351.678 323.173 351.63 323.173 351.577C323.187 350.956 322.224 350.956 322.21 351.577V351.586Z" fill="#244949"/>
<path d="M316.373 223.973C317.235 222.937 318.583 222.407 319.922 222.576C320.052 222.59 320.163 222.456 320.163 222.335C320.163 222.191 320.052 222.109 319.922 222.094C318.477 221.911 316.965 222.509 316.031 223.631C315.833 223.867 316.17 224.209 316.373 223.973Z" fill="#244949"/>
<path d="M308.724 227.046C309.452 226.155 310.646 225.678 311.788 225.871C312.091 225.924 312.221 225.456 311.918 225.408C310.612 225.182 309.225 225.673 308.387 226.704C308.305 226.805 308.291 226.945 308.387 227.046C308.469 227.133 308.647 227.147 308.729 227.046H308.724Z" fill="#244949"/>
<path d="M309.196 229.377C310.439 229.502 311.705 229.045 312.592 228.163C312.813 227.947 312.471 227.605 312.25 227.821C311.45 228.621 310.318 229.006 309.196 228.896C309.066 228.881 308.955 229.016 308.955 229.136C308.955 229.276 309.066 229.363 309.196 229.377Z" fill="#244949"/>
<path d="M310.116 229.42C310.116 229.584 310.179 229.729 310.28 229.849C310.362 229.95 310.497 230.037 310.627 230.061C310.771 230.09 310.93 230.071 311.05 229.984C311.171 229.897 311.253 229.787 311.301 229.647C311.349 229.507 311.33 229.363 311.267 229.233C311.209 229.112 311.089 229.026 310.964 228.987C310.733 228.92 310.434 229.016 310.328 229.237C310.28 229.329 310.265 229.425 310.285 229.531C310.299 229.608 310.347 229.69 310.41 229.743C310.55 229.868 310.766 229.917 310.935 229.811C310.988 229.777 311.031 229.729 311.046 229.666C311.06 229.603 311.055 229.531 311.022 229.478C310.954 229.372 310.805 229.319 310.694 229.392C310.684 229.396 310.675 229.401 310.665 229.406L310.723 229.382C310.723 229.382 310.699 229.392 310.684 229.392L310.747 229.382C310.747 229.382 310.718 229.382 310.699 229.382L310.761 229.392C310.761 229.392 310.723 229.382 310.699 229.377L310.757 229.401C310.757 229.401 310.723 229.382 310.709 229.372L310.757 229.411C310.757 229.411 310.728 229.387 310.718 229.372L310.757 229.42C310.757 229.42 310.737 229.396 310.733 229.382L310.757 229.44C310.757 229.44 310.747 229.411 310.742 229.396L310.752 229.459C310.752 229.459 310.752 229.435 310.752 229.42L310.742 229.483C310.742 229.483 310.752 229.445 310.757 229.43L310.733 229.488C310.733 229.488 310.752 229.454 310.761 229.44L310.723 229.488C310.723 229.488 310.752 229.459 310.766 229.445L310.718 229.483C310.718 229.483 310.766 229.454 310.79 229.44L310.733 229.464C310.761 229.454 310.786 229.445 310.814 229.44L310.752 229.449C310.781 229.449 310.814 229.449 310.843 229.449L310.781 229.44C310.81 229.44 310.839 229.449 310.863 229.464L310.805 229.44C310.805 229.44 310.843 229.459 310.858 229.473L310.81 229.435C310.81 229.435 310.839 229.459 310.848 229.473L310.81 229.425C310.81 229.425 310.834 229.464 310.843 229.488L310.819 229.43C310.819 229.43 310.834 229.473 310.839 229.498L310.829 229.435C310.829 229.464 310.829 229.493 310.829 229.522L310.839 229.459C310.839 229.493 310.824 229.522 310.814 229.551L310.839 229.493C310.824 229.522 310.81 229.551 310.79 229.579L310.829 229.531C310.81 229.555 310.786 229.579 310.761 229.599L310.81 229.56C310.81 229.56 310.766 229.589 310.742 229.604L310.8 229.579C310.776 229.589 310.747 229.599 310.723 229.599L310.786 229.589C310.757 229.589 310.728 229.589 310.699 229.589L310.761 229.599C310.733 229.599 310.699 229.584 310.67 229.575L310.728 229.599C310.694 229.584 310.665 229.57 310.636 229.546L310.684 229.584C310.656 229.56 310.627 229.536 310.603 229.502L310.641 229.551C310.617 229.522 310.598 229.488 310.583 229.454L310.607 229.512C310.593 229.478 310.583 229.445 310.578 229.411L310.588 229.473C310.588 229.473 310.588 229.435 310.588 229.416C310.588 229.29 310.477 229.17 310.347 229.175C310.217 229.18 310.106 229.281 310.106 229.416L310.116 229.42Z" fill="#244949"/>
<path d="M316.888 226.352C318.006 226.391 319.123 225.928 319.884 225.11C320.096 224.883 319.754 224.541 319.542 224.768C318.863 225.5 317.885 225.904 316.888 225.871C316.58 225.861 316.58 226.343 316.888 226.352Z" fill="#244949"/>
<path d="M317.74 226.401C317.842 226.56 317.981 226.68 318.155 226.748C318.318 226.81 318.521 226.796 318.67 226.695C318.819 226.593 318.949 226.415 318.93 226.223C318.911 226.03 318.786 225.881 318.607 225.813C318.521 225.779 318.429 225.779 318.342 225.799C318.237 225.823 318.155 225.89 318.092 225.977C318.058 226.025 318.053 226.107 318.068 226.165C318.082 226.223 318.126 226.28 318.179 226.309C318.236 226.338 318.304 226.353 318.367 226.333C318.429 226.314 318.473 226.275 318.511 226.223L318.473 226.266C318.473 226.266 318.492 226.242 318.506 226.232L318.458 226.271C318.458 226.271 318.477 226.256 318.492 226.251L318.434 226.276C318.434 226.276 318.468 226.266 318.487 226.261L318.424 226.271C318.424 226.271 318.468 226.271 318.487 226.271L318.424 226.261C318.424 226.261 318.473 226.271 318.492 226.28L318.434 226.256C318.434 226.256 318.473 226.276 318.492 226.29L318.444 226.251C318.444 226.251 318.477 226.28 318.487 226.295L318.448 226.247C318.448 226.247 318.468 226.271 318.473 226.285L318.448 226.227C318.448 226.227 318.458 226.256 318.463 226.276L318.453 226.213C318.453 226.213 318.453 226.261 318.453 226.285L318.463 226.223C318.463 226.223 318.453 226.261 318.448 226.28L318.473 226.223C318.463 226.247 318.448 226.271 318.434 226.295L318.473 226.247C318.473 226.247 318.434 226.29 318.415 226.304L318.463 226.266C318.439 226.285 318.41 226.3 318.381 226.314L318.439 226.29C318.41 226.304 318.381 226.309 318.347 226.314L318.41 226.304C318.381 226.304 318.352 226.304 318.323 226.304L318.386 226.314C318.347 226.309 318.314 226.3 318.28 226.285L318.338 226.309C318.294 226.29 318.256 226.266 318.222 226.242L318.27 226.28C318.227 226.247 318.193 226.208 318.159 226.165L318.198 226.213C318.198 226.213 318.174 226.184 318.164 226.165C318.097 226.059 317.948 226.006 317.837 226.078C317.731 226.145 317.678 226.295 317.75 226.406L317.74 226.401Z" fill="#244949"/>
<path d="M313.974 228.544C314.504 229.816 314.807 231.164 314.865 232.537C314.87 232.677 314.971 232.763 315.106 232.778C315.77 232.855 316.454 232.575 316.868 232.055C317.061 231.814 316.719 231.472 316.527 231.713C316.18 232.152 315.66 232.363 315.101 232.296L315.342 232.537C315.284 231.121 314.98 229.724 314.436 228.414C314.321 228.13 313.853 228.255 313.974 228.544Z" fill="#244949"/>
<path d="M316.667 235.715C319.018 235.171 320.92 233.105 321.248 230.711C321.291 230.408 320.824 230.277 320.785 230.581C320.477 232.821 318.748 234.738 316.542 235.248C316.238 235.32 316.368 235.783 316.672 235.71L316.667 235.715Z" fill="#244949"/>
<path d="M319.758 235.889C320.274 235.518 320.702 235.041 320.996 234.483C321.054 234.372 321.03 234.218 320.91 234.155C320.799 234.097 320.645 234.121 320.582 234.242C320.515 234.372 320.438 234.497 320.356 234.617C320.336 234.646 320.317 234.67 320.298 234.699C320.288 234.714 320.279 234.728 320.264 234.743C320.264 234.743 320.226 234.791 320.245 234.772C320.264 234.752 320.226 234.796 320.226 234.8C320.216 234.815 320.202 234.829 320.192 234.844C320.168 234.873 320.144 234.902 320.12 234.926C320.028 235.032 319.927 235.133 319.821 235.229C319.768 235.277 319.71 235.325 319.657 235.374L319.624 235.402C319.571 235.446 319.643 235.388 319.614 235.412C319.585 235.436 319.551 235.46 319.518 235.484C319.416 235.557 319.354 235.696 319.431 235.812C319.498 235.913 319.652 235.976 319.758 235.899V235.889Z" fill="#244949"/>
<path d="M320.404 230.586C320.433 230.586 320.462 230.591 320.491 230.595C320.467 230.595 320.467 230.595 320.491 230.595C320.505 230.595 320.52 230.595 320.534 230.6C320.592 230.61 320.655 230.624 320.712 230.639C320.765 230.653 320.823 230.673 320.876 230.687C320.905 230.697 320.929 230.706 320.958 230.716C320.958 230.716 321.001 230.735 320.977 230.726C320.948 230.716 321.006 230.74 321.006 230.74C321.112 230.788 321.208 230.846 321.305 230.909C321.329 230.923 321.353 230.942 321.377 230.957C321.411 230.981 321.367 230.947 321.387 230.966C321.396 230.976 321.411 230.986 321.42 230.995C321.469 231.034 321.512 231.077 321.555 231.116C321.647 231.202 321.806 231.212 321.897 231.116C321.989 231.019 321.994 230.87 321.897 230.774C321.493 230.379 320.968 230.148 320.404 230.099C320.279 230.09 320.158 230.22 320.163 230.34C320.168 230.48 320.269 230.571 320.404 230.581V230.586Z" fill="#244949"/>
<path d="M128.187 202.906C124.541 206.499 122.152 211.132 120.572 215.958C119.657 218.752 119.002 221.627 118.443 224.513C118.168 225.938 117.913 227.369 117.663 228.799C117.456 229.984 117.224 231.058 118.193 231.969C119.238 232.946 120.476 233.789 121.67 234.574C122.99 235.446 124.363 236.222 125.783 236.92C126.337 237.19 126.829 236.361 126.27 236.087C123.953 234.955 121.747 233.587 119.724 231.988C119.339 231.68 118.732 231.313 118.51 230.856C118.226 230.273 118.525 229.435 118.631 228.833C118.867 227.48 119.108 226.121 119.373 224.773C120.355 219.711 121.646 214.644 124.098 210.073C125.374 207.693 126.949 205.492 128.876 203.594C129.319 203.156 128.635 202.477 128.196 202.915L128.187 202.906Z" fill="#244949"/>
<path d="M124.714 219.85C124.078 227.113 125.075 234.372 126.539 241.476C128.023 248.667 129.978 255.752 131.26 262.987C131.987 267.086 132.478 271.223 132.541 275.389C132.55 276.011 133.514 276.011 133.504 275.389C133.393 268.054 131.943 260.834 130.306 253.71C128.663 246.562 126.799 239.429 125.942 232.132C125.465 228.057 125.311 223.944 125.672 219.855C125.725 219.238 124.762 219.243 124.709 219.855L124.714 219.85Z" fill="#244949"/>
<path d="M128.018 197.159C128.355 198.344 128.582 199.558 128.664 200.791C128.741 201.913 128.64 202.997 128.572 204.119C128.505 205.241 129.208 205.651 130.118 206.065C131.029 206.479 131.92 206.797 132.859 207.043C136.799 208.054 141.042 207.606 144.679 205.786C145.232 205.506 144.746 204.678 144.192 204.952C140.849 206.628 136.938 207.048 133.307 206.161C132.411 205.945 131.534 205.651 130.691 205.275C130.345 205.121 129.69 204.928 129.535 204.533C129.381 204.138 129.603 203.459 129.627 203.04C129.757 200.974 129.507 198.893 128.938 196.909C128.77 196.312 127.84 196.567 128.009 197.164L128.018 197.159Z" fill="#244949"/>
<path d="M147.665 174.445C148.315 175.952 148.329 177.575 147.838 179.126C147.453 180.335 146.961 181.549 147.347 182.825C148.045 185.161 150.054 186.963 151.325 188.986C151.47 189.212 151.605 189.443 151.73 189.679C151.874 189.949 151.754 189.862 151.85 189.756C151.845 189.766 151.816 189.781 151.807 189.785C151.407 189.973 151.017 190.161 150.612 190.334C150.285 190.474 149.938 190.623 149.673 190.869C149.235 191.278 149.211 191.943 149.066 192.492C148.695 193.928 148.238 195.339 147.852 196.774C147.467 198.209 147.376 199.91 146.215 200.916C144.996 201.976 143.132 202.231 141.586 202.313C139.717 202.409 137.873 202.135 136.105 201.523C135.517 201.321 135.267 202.25 135.85 202.453C138.836 203.483 142.564 203.763 145.521 202.462C146.827 201.889 147.727 200.907 148.151 199.544C148.642 197.959 148.98 196.317 149.447 194.722C149.659 194 149.866 193.272 150.049 192.54C150.116 192.28 150.136 191.823 150.29 191.611C150.415 191.442 150.699 191.346 150.877 191.264C151.47 190.989 152.597 190.773 152.77 190.017C152.881 189.54 152.472 189.02 152.236 188.639C151.874 188.047 151.465 187.483 151.051 186.924C150.227 185.817 149.331 184.733 148.671 183.509C148.392 182.994 148.146 182.421 148.146 181.824C148.146 180.908 148.561 180.042 148.821 179.179C149.346 177.431 149.211 175.625 148.488 173.953C148.243 173.385 147.414 173.876 147.655 174.44L147.665 174.445Z" fill="#244949"/>
<path d="M142.949 203.392L143.45 204.899C143.527 205.14 143.787 205.319 144.043 205.237C144.279 205.16 144.466 204.899 144.38 204.644L143.879 203.137C143.802 202.896 143.542 202.718 143.286 202.799C143.05 202.877 142.863 203.137 142.949 203.392Z" fill="#244949"/>
<path d="M144.346 205.372C150.169 210.073 154.417 216.349 159.913 221.387C161.445 222.793 163.082 224.089 164.831 225.216C165.356 225.553 165.837 224.72 165.317 224.382C159.07 220.365 154.697 214.22 149.61 208.936C148.166 207.433 146.648 205.998 145.025 204.688C144.548 204.302 143.86 204.982 144.346 205.367V205.372Z" fill="#244949"/>
<path d="M136.081 227.422C141.481 233.736 147.809 239.232 154.813 243.701C155.338 244.034 155.819 243.201 155.299 242.868C148.358 238.442 142.111 232.994 136.76 226.738C136.356 226.266 135.677 226.95 136.081 227.417V227.422Z" fill="#244949"/>
<path d="M155.598 243.071C157.823 236.621 161.421 230.697 166.107 225.746C166.531 225.298 165.852 224.614 165.428 225.067C160.621 230.143 156.951 236.212 154.668 242.82C154.466 243.408 155.396 243.658 155.598 243.076V243.071Z" fill="#244949"/>
<path d="M156.113 241.5C159.335 243.908 162.836 245.907 166.434 247.704C168.202 248.59 169.999 249.428 171.795 250.256C173.592 251.085 175.374 252.188 177.329 252.154C177.951 252.144 177.951 251.181 177.329 251.191C176.275 251.21 175.321 250.815 174.372 250.386C173.423 249.958 172.575 249.563 171.68 249.149C169.95 248.349 168.226 247.535 166.526 246.673C163.068 244.925 159.706 242.988 156.599 240.667C156.103 240.296 155.621 241.129 156.113 241.5Z" fill="#244949"/>
<path d="M164.493 227.056L173.467 232.445C174.001 232.763 174.483 231.935 173.953 231.612L164.98 226.222C164.445 225.905 163.964 226.733 164.493 227.056Z" fill="#244949"/>
<path d="M174.42 232.392C178.331 225.221 184.299 219.551 189.992 213.81C195.878 207.876 201.258 201.533 205.834 194.525C208.454 190.513 210.814 186.327 212.904 182.016L212.023 181.901C212.924 185.894 211.498 190.195 208.435 192.897C208.242 193.065 208.252 193.407 208.435 193.576C211.305 196.259 214.735 199.688 213.68 204.009C212.606 208.396 208.146 210.578 203.897 210.256C203.281 210.207 203.281 211.171 203.897 211.219C207.5 211.493 211.238 210.135 213.333 207.091C214.292 205.694 214.86 203.999 214.841 202.299C214.821 200.599 214.171 198.898 213.227 197.458C212.1 195.739 210.612 194.294 209.119 192.897V193.576C212.442 190.648 213.93 185.961 212.957 181.646C212.871 181.255 212.259 181.159 212.076 181.53C208.367 189.193 203.796 196.442 198.445 203.069C195.835 206.306 193.027 209.369 190.108 212.332C187.189 215.294 184.362 218.029 181.636 221.021C178.587 224.358 175.764 227.927 173.597 231.906C173.298 232.45 174.131 232.937 174.43 232.392H174.42Z" fill="#244949"/>
<path d="M177.58 252.039C185.845 242.459 193.137 232.041 199.292 220.982C201.046 217.832 202.703 214.634 204.273 211.387C204.542 210.833 203.709 210.342 203.439 210.901C197.953 222.258 191.316 233.057 183.644 243.07C181.476 245.898 179.222 248.657 176.896 251.355C176.491 251.822 177.17 252.506 177.575 252.034L177.58 252.039Z" fill="#244949"/>
<path d="M165.158 247.232C165.033 255.694 165.312 264.162 166.001 272.6C166.049 273.212 167.012 273.222 166.964 272.6C166.28 264.162 165.996 255.694 166.121 247.232C166.131 246.61 165.168 246.61 165.158 247.232Z" fill="#244949"/>
<path d="M118.197 231.8C117.668 235.639 117.263 239.535 117.2 243.413C117.186 244.212 117.302 244.954 117.802 245.599C118.337 246.283 119.031 246.866 119.666 247.444C120.962 248.629 122.325 249.742 123.741 250.782C125.384 251.991 127.103 253.089 128.88 254.081C129.42 254.385 129.906 253.551 129.367 253.248C125.624 251.158 122.161 248.59 119.103 245.58C118.727 245.209 118.352 244.848 118.226 244.318C118.101 243.788 118.169 243.244 118.188 242.729C118.231 241.549 118.294 240.373 118.38 239.193C118.549 236.804 118.799 234.42 119.127 232.051C119.209 231.444 118.284 231.184 118.197 231.795V231.8Z" fill="#244949"/>
<path d="M318.81 305.016C321.233 305.252 323.694 304.991 326.117 304.832C328.434 304.678 330.75 304.5 333.062 304.235C337.657 303.705 342.223 302.829 346.539 301.124C347.107 300.897 346.862 299.968 346.284 300.194C341.983 301.89 337.426 302.781 332.846 303.296C330.572 303.551 328.294 303.725 326.011 303.874C323.622 304.033 321.204 304.288 318.815 304.052C318.199 303.99 318.203 304.958 318.815 305.016H318.81Z" fill="#244949"/>
<path d="M465.959 244.612L477.682 236.168L490.663 238.215L490.745 239.251L466.402 247.468L465.959 244.612Z" fill="#66AFAB"/>
<path d="M464.808 246.466L477.929 237.146L490.765 239.256L473.584 252.073C473.584 252.073 469.278 253.455 466.682 252.396C465.584 251.948 464.144 251.105 463.595 250.286C462.843 249.169 464.813 246.466 464.813 246.466H464.808Z" fill="#244949"/>
<path d="M113.188 146.085C136.443 132.714 167.037 133.254 189.805 147.434C193.957 150.02 197.877 153.04 201.032 156.778C207.982 165.009 210.694 176.646 208.103 187.102" stroke="#244949" stroke-width="0.755424" stroke-miterlimit="10"/>
<path d="M109.773 149.062H78.7021C78.1143 149.062 77.6377 149.539 77.6377 150.126V170.712C77.6377 171.3 78.1143 171.777 78.7021 171.777H109.773C110.361 171.777 110.838 171.3 110.838 170.712V150.126C110.838 149.539 110.361 149.062 109.773 149.062Z" fill="#66AFAB"/>
<path d="M78.793 150.179L94.1239 163.044L110.524 149.967L94.0132 167.22L78.793 150.179Z" fill="#069299"/>
<path opacity="0.35" d="M260.135 135.59H218.125V142.564H260.135V135.59Z" fill="#66AFAB"/>
<path opacity="0.35" d="M276.708 148.238H218.125V155.212H276.708V148.238Z" fill="#66AFAB"/>
<path opacity="0.35" d="M252.443 160.886H218.125V167.861H252.443V160.886Z" fill="#66AFAB"/>
<path opacity="0.35" d="M262.003 173.115H218.125V180.09H262.003V173.115Z" fill="#66AFAB"/>
<path d="M164.508 278.592L179.738 323.689L179.439 384.026" stroke="#EDC36F" stroke-width="1.51085" stroke-miterlimit="10"/>
<path d="M113.968 147.829C115.205 147.829 116.208 146.826 116.208 145.589C116.208 144.352 115.205 143.349 113.968 143.349C112.731 143.349 111.729 144.352 111.729 145.589C111.729 146.826 112.731 147.829 113.968 147.829Z" fill="#244949"/>
<path d="M322.534 60.2065L322.442 66.7088L337.484 54.2629L322.534 60.2065Z" fill="#244949"/>
<path d="M317.804 56.7821L340.229 52.1294L329.074 68.5489L323.93 62.7883L336.184 54.8218L322.948 61.5649L317.804 56.7821Z" fill="#66AFAB"/>
<path d="M137.849 225.731C142.343 230.803 147.395 235.354 152.891 239.314C153.647 239.858 154.37 238.606 153.618 238.066C148.224 234.179 143.277 229.685 138.865 224.71C138.249 224.012 137.228 225.037 137.844 225.731H137.849Z" fill="#66AFAB"/>
<path d="M144.842 208.791C149.374 215.125 154.562 220.972 160.327 226.208C161.016 226.834 162.037 225.813 161.348 225.187C155.674 220.033 150.549 214.292 146.089 208.059C145.555 207.308 144.298 208.03 144.842 208.787V208.791Z" fill="#E4EBEB"/>
<path d="M163.087 262.452L164.199 271.233C164.248 271.618 164.498 271.955 164.922 271.955C165.274 271.955 165.693 271.623 165.644 271.233L164.532 262.452C164.484 262.067 164.233 261.73 163.809 261.73C163.458 261.73 163.039 262.062 163.087 262.452Z" fill="#E4EBEB"/>
<path d="M127.079 211.913C125.725 219.609 126.549 227.441 128.056 235.051C129.564 242.661 131.789 250.363 133.032 258.151C133.75 262.635 134.188 267.153 134.631 271.666C134.722 272.581 136.167 272.591 136.076 271.666C135.691 267.731 135.3 263.796 134.747 259.885C134.193 255.974 133.417 252.14 132.541 248.306C130.802 240.691 128.74 233.1 128.056 225.293C127.676 220.963 127.714 216.585 128.471 212.298C128.63 211.388 127.238 210.997 127.079 211.913Z" fill="#E4EBEB"/>
<path d="M120.649 230.509C120.639 224.83 121.892 219.195 124.334 214.07C124.734 213.237 123.486 212.5 123.086 213.343C120.534 218.704 119.195 224.575 119.204 230.514C119.204 231.443 120.649 231.443 120.649 230.514V230.509Z" fill="#E4EBEB"/>
<path d="M420.631 221.767L423.911 252.251C424.007 253.166 425.457 253.175 425.356 252.251L422.076 221.767C421.98 220.852 420.53 220.842 420.631 221.767Z" fill="#EDC36F"/>
<path d="M429.648 254.423C436.593 254.071 443.514 253.421 450.402 252.482C450.792 252.429 450.994 251.933 450.908 251.591C450.797 251.172 450.402 251.032 450.017 251.085C443.259 252.005 436.458 252.631 429.648 252.973C428.723 253.021 428.718 254.466 429.648 254.418V254.423Z" fill="#EDC36F"/>
<path d="M452.477 223.564C453.315 230.889 453.845 238.244 454.067 245.614C454.096 246.543 455.541 246.543 455.512 245.614C455.29 238.244 454.76 230.889 453.922 223.564C453.816 222.648 452.371 222.639 452.477 223.564Z" fill="#EDC36F"/>
<path d="M458.204 229.209L461.942 241.558C462.212 242.444 463.604 242.069 463.334 241.173L459.596 228.823C459.327 227.937 457.935 228.313 458.204 229.209Z" fill="#EDC36F"/>
<path d="M453.412 262.832C453.234 267.75 453.518 272.668 454.24 277.537C454.375 278.452 455.767 278.062 455.632 277.152C454.929 272.412 454.679 267.615 454.857 262.832C454.891 261.903 453.446 261.903 453.412 262.832Z" fill="#EDC36F"/>
<path d="M448.571 298.595C448.706 304.572 448.571 310.545 448.133 316.508C447.695 322.471 447.131 328.303 446.765 334.213C446.712 335.099 446.803 335.986 446.49 336.814L445.879 338.442L443.538 344.636L436.173 364.148L428.438 384.637L425.702 391.886C425.254 393.071 424.753 394.246 424.359 395.446C424.339 395.499 424.32 395.551 424.296 395.604C424.05 396.26 425.095 396.539 425.341 395.893L428.732 386.915L436.241 367.023L443.885 346.775L446.51 339.82C446.89 338.808 447.381 337.782 447.675 336.737C447.675 336.723 447.69 336.708 447.695 336.689C447.781 336.347 447.748 335.947 447.767 335.596C447.796 335.061 447.829 334.526 447.863 333.992C447.969 332.311 448.085 330.635 448.21 328.958C448.427 326.107 448.672 323.26 448.908 320.414C449.366 314.865 449.698 309.317 449.708 303.749C449.708 302.029 449.689 300.315 449.65 298.595C449.636 297.897 448.552 297.897 448.566 298.595H448.571Z" fill="#069299"/>
<path d="M456.104 282.287L455.632 331.709L448.716 398.654" stroke="#069299" stroke-width="0.755424" stroke-miterlimit="10"/>
<path d="M422.043 67.186L424.687 73.3415C425.232 74.6083 425.333 76.0243 424.981 77.3585C424.042 80.9083 421.407 87.8922 414.577 92.386C405.099 98.6186 399.43 98.397 393.963 95.8684C386.492 92.4149 388.318 83.6585 388.318 83.6585L422.043 67.186Z" fill="#346768"/>
<path d="M415.017 89.3698C423.345 82.0979 426.062 71.5851 421.088 65.8888C416.113 60.1925 405.33 61.4697 397.003 68.7416C388.676 76.0134 385.958 86.5262 390.933 92.2225C395.907 97.9189 406.69 96.6416 415.017 89.3698Z" fill="#E4EBEB"/>
<path d="M415.776 74.8203C416.508 72.282 415.28 69.3921 412.819 68.3325C410.247 67.2199 407.28 68.2313 405.873 70.6396C405.228 71.7474 404.91 73.0334 404.881 74.3098C404.847 75.9185 405.372 77.4646 405.604 79.0396C405.825 80.5279 405.613 81.968 404.857 83.2781C404.101 84.5882 402.926 85.7779 401.5 86.1921C400.074 86.6063 398.509 85.8887 397.767 84.6267C396.973 83.2733 397.252 81.4671 398.225 80.2822C398.74 79.6513 397.844 78.741 397.324 79.3816C395.59 81.5008 395.537 84.7616 397.786 86.5534C398.812 87.3722 400.151 87.7671 401.452 87.5215C402.897 87.2517 404.188 86.2403 405.112 85.1325C406.037 84.0247 406.678 82.7387 406.89 81.3274C407.135 79.7139 406.731 78.1437 406.413 76.5687C406.119 75.1093 406.032 73.6692 406.533 72.2387C406.976 70.9671 407.906 69.8304 409.206 69.3825C410.7 68.8719 412.453 69.2187 413.556 70.3699C414.596 71.4536 414.953 73.0527 414.538 74.4832C414.312 75.2731 415.54 75.6102 415.771 74.8203H415.776Z" fill="#346768"/>
<path d="M395.287 87.9258C400.528 83.0082 405.787 78.1098 411.013 73.1728C412.651 71.6219 414.289 70.0662 415.921 68.5104C416.519 67.9421 415.613 67.0414 415.021 67.6098C409.853 72.537 404.646 77.421 399.434 82.3001C397.753 83.8751 396.068 85.4501 394.387 87.0299C393.785 87.5935 394.69 88.4942 395.287 87.9306V87.9258Z" fill="#346768"/>
<path d="M413.903 88.3674C421.195 82.0002 423.48 72.6869 419.007 67.5656C414.535 62.4443 404.999 63.4544 397.708 69.8217C390.417 76.1889 388.131 85.5022 392.604 90.6235C397.076 95.7447 406.612 94.7347 413.903 88.3674Z" stroke="#66AFAB" stroke-width="0.596785" stroke-miterlimit="10"/>
<path d="M452.829 59.9661C469.329 59.9661 482.706 46.5898 482.706 30.0892C482.706 13.5887 469.329 0.212402 452.829 0.212402C436.328 0.212402 422.952 13.5887 422.952 30.0892C422.952 46.5898 436.328 59.9661 452.829 59.9661Z" fill="white" stroke="#244949" stroke-width="0.657219" stroke-miterlimit="10"/>
<path d="M161.228 107.211C164.296 107.211 166.786 104.721 166.786 101.653C166.786 104.721 169.276 107.211 172.344 107.211C169.276 107.211 166.786 109.701 166.786 112.769C166.786 109.701 164.296 107.211 161.228 107.211Z" fill="#346768"/>
<path d="M152.929 78.163C155.997 78.163 158.487 75.6729 158.487 72.6047C158.487 75.6729 160.977 78.163 164.045 78.163C160.977 78.163 158.487 80.6531 158.487 83.7212C158.487 80.6531 155.997 78.163 152.929 78.163Z" fill="#346768"/>
<path d="M140.146 101.653C145.733 101.653 150.265 97.1206 150.265 91.5334C150.265 97.1206 154.797 101.653 160.384 101.653C154.797 101.653 150.265 106.185 150.265 111.772C150.265 106.185 145.733 101.653 140.146 101.653Z" fill="#EBAB4C"/>
<path d="M439.251 14.4692V30.0025" stroke="#244949" stroke-width="1.51085" stroke-miterlimit="10" stroke-linecap="round"/>
<path d="M439.251 33.9036V45.704" stroke="#244949" stroke-width="1.51085" stroke-miterlimit="10" stroke-linecap="round"/>
<path d="M439.251 33.8366C440.35 33.8366 441.24 32.946 441.24 31.8474C441.24 30.7488 440.35 29.8582 439.251 29.8582C438.152 29.8582 437.262 30.7488 437.262 31.8474C437.262 32.946 438.152 33.8366 439.251 33.8366Z" stroke="#244949" stroke-width="1.51085" stroke-miterlimit="10" stroke-linecap="round"/>
<path d="M457.356 14.4692V30.0025" stroke="#244949" stroke-width="1.51085" stroke-miterlimit="10" stroke-linecap="round"/>
<path d="M457.356 33.9036V45.704" stroke="#244949" stroke-width="1.51085" stroke-miterlimit="10" stroke-linecap="round"/>
<path d="M457.356 33.8366C458.455 33.8366 459.346 32.946 459.346 31.8474C459.346 30.7488 458.455 29.8582 457.356 29.8582C456.258 29.8582 455.367 30.7488 455.367 31.8474C455.367 32.946 456.258 33.8366 457.356 33.8366Z" stroke="#244949" stroke-width="1.51085" stroke-miterlimit="10" stroke-linecap="round"/>
<path d="M448.307 45.7042V23.6638" stroke="#244949" stroke-width="1.51085" stroke-miterlimit="10" stroke-linecap="round"/>
<path d="M448.307 19.6422V14.4692" stroke="#244949" stroke-width="1.51085" stroke-miterlimit="10" stroke-linecap="round"/>
<path d="M448.307 23.5722C449.405 23.5722 450.296 22.6816 450.296 21.583C450.296 20.4844 449.405 19.5938 448.307 19.5938C447.208 19.5938 446.317 20.4844 446.317 21.583C446.317 22.6816 447.208 23.5722 448.307 23.5722Z" stroke="#244949" stroke-width="1.51085" stroke-miterlimit="10" stroke-linecap="round"/>
<path d="M466.406 45.7042V23.6638" stroke="#244949" stroke-width="1.51085" stroke-miterlimit="10" stroke-linecap="round"/>
<path d="M466.406 19.6422V14.4692" stroke="#244949" stroke-width="1.51085" stroke-miterlimit="10" stroke-linecap="round"/>
<path d="M466.406 23.5722C467.505 23.5722 468.395 22.6816 468.395 21.583C468.395 20.4844 467.505 19.5938 466.406 19.5938C465.308 19.5938 464.417 20.4844 464.417 21.583C464.417 22.6816 465.308 23.5722 466.406 23.5722Z" stroke="#244949" stroke-width="1.51085" stroke-miterlimit="10" stroke-linecap="round"/>
<path opacity="0.26" d="M489.647 75.634C491.126 75.634 492.325 74.4351 492.325 72.9561C492.325 71.477 491.126 70.2781 489.647 70.2781C488.168 70.2781 486.969 71.477 486.969 72.9561C486.969 74.4351 488.168 75.634 489.647 75.634Z" fill="#66AFAB"/>
<path opacity="0.26" d="M479.696 116.984C481.175 116.984 482.374 115.785 482.374 114.306C482.374 112.827 481.175 111.628 479.696 111.628C478.217 111.628 477.018 112.827 477.018 114.306C477.018 115.785 478.217 116.984 479.696 116.984Z" fill="#66AFAB"/>
<path d="M242.757 50.2462C249.338 50.2462 254.673 44.9112 254.673 38.3301C254.673 31.7491 249.338 26.4141 242.757 26.4141C236.176 26.4141 230.841 31.7491 230.841 38.3301C230.841 44.9112 236.176 50.2462 242.757 50.2462Z" fill="#EDC36F"/>
<path d="M236.443 48.6471C245.394 48.6471 252.65 41.3907 252.65 32.4395C252.65 23.4883 245.394 16.2319 236.443 16.2319C227.492 16.2319 220.235 23.4883 220.235 32.4395C220.235 41.3907 227.492 48.6471 236.443 48.6471Z" stroke="#346768" stroke-width="0.687436" stroke-miterlimit="10"/>
<path d="M145.243 182.31C145.267 182.3 145.291 182.286 145.315 182.276C145.262 182.296 145.262 182.3 145.315 182.276C145.353 182.262 145.392 182.247 145.43 182.233C145.522 182.199 145.609 182.17 145.7 182.146C145.792 182.122 145.883 182.098 145.979 182.079C146.018 182.069 146.061 182.064 146.1 182.055C146.114 182.055 146.264 182.031 146.196 182.04C146.129 182.05 146.278 182.031 146.293 182.031C146.331 182.031 146.374 182.026 146.413 182.021C146.509 182.016 146.606 182.011 146.697 182.011C146.789 182.011 146.89 182.016 146.981 182.026C147.02 182.026 147.063 182.035 147.102 182.035C147.16 182.04 147.155 182.04 147.097 182.035C147.126 182.035 147.15 182.045 147.179 182.05C147.424 182.088 147.709 181.987 147.771 181.713C147.824 181.482 147.699 181.164 147.434 181.12C146.514 180.971 145.604 181.091 144.751 181.482C144.52 181.588 144.448 181.934 144.578 182.141C144.732 182.377 144.992 182.426 145.238 182.315L145.243 182.31Z" fill="#244949"/>
<path d="M145.574 194.106C146.335 194.766 147.25 195.233 148.242 195.431C148.488 195.479 148.772 195.358 148.835 195.093C148.888 194.853 148.763 194.554 148.498 194.501C148.281 194.458 148.069 194.405 147.857 194.332C147.751 194.299 147.65 194.26 147.549 194.222C147.506 194.202 147.51 194.207 147.549 194.222C147.525 194.212 147.501 194.198 147.472 194.188C147.414 194.164 147.361 194.135 147.303 194.111C147.106 194.015 146.913 193.904 146.73 193.783C146.639 193.721 146.547 193.658 146.46 193.596C146.451 193.591 146.383 193.538 146.427 193.571C146.47 193.605 146.403 193.552 146.393 193.547C146.345 193.509 146.297 193.47 146.248 193.427C146.056 193.263 145.752 193.225 145.569 193.427C145.406 193.61 145.367 193.933 145.569 194.106H145.574Z" fill="#244949"/>
<path d="M145.376 194.708C145.41 194.54 145.458 194.376 145.521 194.212C145.55 194.14 145.53 194.207 145.511 194.236C145.521 194.217 145.531 194.193 145.54 194.173C145.559 194.135 145.574 194.096 145.593 194.063C145.632 193.986 145.68 193.909 145.723 193.832C145.747 193.798 145.767 193.759 145.791 193.726C145.8 193.711 145.81 193.697 145.824 193.682C145.829 193.673 145.887 193.596 145.839 193.663C145.791 193.73 145.839 193.663 145.853 193.648C145.868 193.634 145.877 193.62 145.887 193.605C145.916 193.571 145.95 193.538 145.978 193.499C146.036 193.437 146.094 193.379 146.157 193.326C146.19 193.297 146.229 193.263 146.263 193.234C146.311 193.196 146.248 193.249 146.229 193.258C146.253 193.244 146.272 193.225 146.296 193.21C146.402 193.133 146.484 193.051 146.518 192.921C146.552 192.806 146.537 192.651 146.47 192.55C146.34 192.348 146.031 192.223 145.81 192.377C145.116 192.873 144.606 193.605 144.437 194.448C144.389 194.694 144.509 194.978 144.774 195.04C145.015 195.093 145.314 194.968 145.367 194.703L145.376 194.708Z" fill="#244949"/>
<path d="M147.048 184.545C147.669 184.545 147.669 183.582 147.048 183.582C146.427 183.582 146.427 184.545 147.048 184.545Z" fill="#244949"/>
<path d="M461.509 195.546C461.605 195.575 461.696 195.608 461.788 195.647L461.672 195.599C461.918 195.705 462.154 195.84 462.366 196.003L462.27 195.926C462.429 196.047 462.573 196.186 462.703 196.336C462.872 196.524 463.214 196.519 463.382 196.336C463.57 196.133 463.56 195.859 463.382 195.657C462.954 195.17 462.38 194.809 461.764 194.616C461.523 194.539 461.229 194.708 461.171 194.953C461.114 195.218 461.249 195.464 461.509 195.546Z" fill="#244949"/>
<path d="M454.944 194.101C455.387 194.183 455.825 194.303 456.249 194.462C456.297 194.482 456.35 194.501 456.398 194.52C456.427 194.53 456.456 194.544 456.485 194.554C456.442 194.535 456.447 194.535 456.495 194.559C456.591 194.602 456.692 194.645 456.789 194.694C456.996 194.795 457.198 194.905 457.395 195.021C457.612 195.151 457.935 195.079 458.055 194.848C458.176 194.616 458.113 194.327 457.882 194.188C457.058 193.696 456.143 193.345 455.199 193.167C454.953 193.118 454.669 193.234 454.607 193.504C454.554 193.74 454.679 194.048 454.944 194.096V194.101Z" fill="#244949"/>
<path d="M455.965 197.208C456.586 197.208 456.586 196.245 455.965 196.245C455.344 196.245 455.344 197.208 455.965 197.208Z" fill="#244949"/>
<path d="M460.979 198.431C461.6 198.431 461.6 197.468 460.979 197.468C460.357 197.468 460.357 198.431 460.979 198.431Z" fill="#244949"/>
<path d="M458.041 198.041C457.781 199.486 457.598 200.941 457.487 202.405C457.468 202.665 457.723 202.886 457.969 202.886C458.244 202.886 458.431 202.665 458.451 202.405C458.552 201.027 458.725 199.659 458.971 198.296C459.014 198.041 458.903 197.776 458.634 197.704C458.402 197.641 458.089 197.781 458.041 198.041Z" fill="#244949"/>
<path d="M455.729 202.852L457.622 203.291C457.867 203.349 458.156 203.214 458.214 202.954C458.272 202.708 458.142 202.424 457.877 202.361L455.984 201.923C455.738 201.865 455.449 202 455.391 202.26C455.334 202.506 455.464 202.79 455.729 202.852Z" fill="#244949"/>
<path d="M450.902 201.427C451.336 203.585 453.06 205.396 455.175 205.969C455.772 206.133 456.027 205.203 455.43 205.039C453.619 204.548 452.198 203.011 451.827 201.172C451.774 200.916 451.471 200.772 451.235 200.834C450.97 200.907 450.845 201.172 450.898 201.427H450.902Z" fill="#244949"/>
<path d="M450.623 201.851C450.72 201.745 450.821 201.644 450.927 201.547C450.98 201.499 451.037 201.451 451.095 201.403C451.105 201.393 451.124 201.374 451.134 201.369C451.124 201.374 451.047 201.436 451.1 201.398C451.134 201.374 451.163 201.35 451.196 201.331C451.432 201.162 451.688 201.022 451.957 200.907L451.842 200.955C451.89 200.936 451.938 200.916 451.986 200.897C452.107 200.854 452.208 200.791 452.275 200.675C452.338 200.574 452.362 200.42 452.323 200.305C452.251 200.073 451.982 199.871 451.731 199.967C451.052 200.228 450.431 200.627 449.944 201.172C449.776 201.359 449.747 201.668 449.944 201.851C450.127 202.019 450.445 202.053 450.623 201.851Z" fill="#244949"/>
<path opacity="0.63" d="M537.19 188.702H493.422V194.212H537.19V188.702Z" fill="#E4EBEB"/>
<path opacity="0.63" d="M537.19 197.834H493.422V203.344H537.19V197.834Z" fill="#E4EBEB"/>
<path opacity="0.63" d="M537.19 206.966H493.422V212.476H537.19V206.966Z" fill="#E4EBEB"/>
<path d="M109.209 59.7925C119.733 59.7925 128.264 68.3225 128.264 78.8466C128.264 89.3707 119.733 97.9007 109.209 97.9007C98.6853 97.9007 90.1553 89.3707 90.1553 78.8466C90.1553 73.1005 92.6984 67.9517 96.7154 64.4597" stroke="#66AFAB" stroke-width="3.50517" stroke-miterlimit="10"/>
<path d="M98.0163 68.4429L101.446 61.4397L93.667 61.9695L98.0163 68.4429Z" fill="#66AFAB"/>
<path d="M106.927 69.3821L110.448 80.3493L101.176 83.2825" stroke="#66AFAB" stroke-width="3.57316" stroke-miterlimit="10" stroke-linecap="round"/>
<path opacity="0.26" d="M493.794 173.713C506.291 173.713 516.422 163.582 516.422 151.085C516.422 138.588 506.291 128.457 493.794 128.457C481.297 128.457 471.166 138.588 471.166 151.085C471.166 163.582 481.297 173.713 493.794 173.713Z" fill="#66AFAB"/>
<path d="M500.585 139.756C499.592 138.865 498.33 138.316 496.996 138.297C494.983 138.268 491.727 139.034 488.76 143.364C485.856 147.602 484.29 150.54 481.998 152.573C480.822 153.613 479.575 153.936 478.843 154.047L499.414 164.238C499.414 164.238 498.59 162.148 499.154 159.788C499.674 157.606 506.726 145.271 500.585 139.761V139.756Z" fill="#66AFAB"/>
<path d="M497.926 139.385C497.926 139.385 495.219 138.865 492.787 142.241C490.355 145.618 486.511 153.551 484.175 154.668L481.223 153.767C481.223 153.767 484.026 151.99 485.861 149.004C487.696 146.017 491.371 137.555 497.926 139.385Z" fill="#069299"/>
<path d="M499.444 140.397C502.796 142.694 502.011 147.265 500.831 150.511C500.133 152.424 499.348 154.307 498.62 156.209C497.965 157.919 497.411 159.725 497.879 161.556C497.941 161.801 498.327 161.7 498.259 161.45C497.71 159.316 498.649 157.211 499.41 155.256C500.171 153.3 501.086 151.215 501.703 149.129C502.623 146.022 502.594 142.087 499.637 140.06C499.425 139.915 499.227 140.257 499.434 140.402L499.444 140.397Z" fill="#E4EBEB"/>
<path d="M499.583 139.241C500.333 139.241 500.941 138.633 500.941 137.882C500.941 137.132 500.333 136.524 499.583 136.524C498.833 136.524 498.225 137.132 498.225 137.882C498.225 138.633 498.833 139.241 499.583 139.241Z" fill="#244949"/>
<path d="M499.497 164.556C499.102 165.36 494.969 164.142 489.936 161.801C489.936 161.801 489.926 161.801 489.922 161.796C489.387 161.546 488.838 161.286 488.284 161.011C487.711 160.727 487.147 160.443 486.608 160.154C486.507 160.101 486.405 160.048 486.304 159.995C481.579 157.476 478.28 155.029 478.665 154.244C479.08 153.406 483.573 154.774 488.915 157.322C488.944 157.336 488.973 157.346 488.997 157.36C489.286 157.5 489.58 157.644 489.873 157.789C490.167 157.933 490.456 158.078 490.74 158.227C490.769 158.242 490.798 158.256 490.827 158.271C496.091 160.973 499.906 163.718 499.487 164.556H499.497Z" fill="#069299" stroke="#244949" stroke-width="0.619448" stroke-miterlimit="10"/>
<path d="M490.61 160.771C490.571 160.906 490.518 161.04 490.456 161.161C490.326 161.411 490.143 161.628 489.931 161.797C489.488 162.153 488.9 162.326 488.312 162.225C487.287 162.052 486.588 161.146 486.617 160.154C486.617 160.034 486.636 159.913 486.66 159.793C486.67 159.745 486.684 159.697 486.699 159.648C486.877 159.032 487.325 158.555 487.889 158.329C488.327 158.151 488.693 157.833 488.895 157.404L488.934 157.327C488.963 157.341 488.992 157.351 489.016 157.365C489.305 157.505 489.598 157.65 489.892 157.794C490.186 157.939 490.475 158.083 490.759 158.232L490.692 158.377C490.504 158.772 490.49 159.225 490.615 159.644C490.721 160 490.73 160.385 490.62 160.771H490.61Z" fill="#244949"/>
<path d="M478.819 154.331C486.227 152.472 486.805 142.877 493.096 139.554C494.733 138.687 496.698 138.345 498.476 139C500.128 139.612 501.486 141.042 502.237 142.608C503.095 144.39 503.018 146.35 502.627 148.243C502.237 150.136 501.736 151.899 501.062 153.633C500.354 155.458 499.559 157.24 499.02 159.128C498.509 160.92 498.495 162.529 499.343 164.219C499.458 164.446 499.8 164.248 499.684 164.017C499.251 163.15 498.986 162.259 499.02 161.281C499.054 160.356 499.323 159.456 499.598 158.579C500.137 156.855 500.879 155.217 501.524 153.536C502.213 151.73 502.757 149.803 503.104 147.896C503.417 146.177 503.446 144.414 502.762 142.776C501.505 139.766 498.48 137.733 495.191 138.374C491.636 139.063 489.286 142.058 487.479 144.963C485.283 148.498 483.121 152.828 478.728 153.936C478.482 153.999 478.583 154.379 478.834 154.317L478.819 154.331Z" fill="#244949"/>
<path d="M489.845 142.352C493.481 142.453 497.021 143.759 499.854 146.047C500.051 146.205 500.33 145.926 500.133 145.767C497.219 143.407 493.592 142.063 489.845 141.957C489.59 141.953 489.59 142.347 489.845 142.352Z" fill="#244949"/>
<path d="M486.82 146.957C490.909 147.549 494.777 149.254 497.96 151.889C498.158 152.053 498.437 151.773 498.24 151.609C495.003 148.931 491.082 147.178 486.926 146.576C486.675 146.538 486.569 146.923 486.82 146.957Z" fill="#244949"/>
<path d="M483.886 151.503C488.361 152.052 492.561 154.119 495.735 157.317C495.913 157.5 496.197 157.216 496.014 157.038C492.758 153.762 488.467 151.672 483.886 151.108C483.636 151.08 483.636 151.474 483.886 151.503Z" fill="#244949"/>
<path d="M501.135 147.019C501.192 147.053 501.245 147.087 501.294 147.125L501.255 147.096C501.346 147.169 501.433 147.251 501.505 147.347L501.477 147.308C501.544 147.395 501.602 147.491 501.645 147.592C501.664 147.636 501.722 147.67 501.766 147.684C501.814 147.698 501.876 147.689 501.92 147.665C501.963 147.641 502.002 147.597 502.011 147.544C502.026 147.491 502.011 147.443 501.992 147.39C501.862 147.092 501.626 146.836 501.342 146.677C501.25 146.624 501.12 146.653 501.072 146.75C501.024 146.846 501.048 146.966 501.144 147.019H501.135Z" fill="#244949"/>
<path d="M498.943 152.823L498.972 152.843C498.972 152.843 498.987 152.852 498.972 152.843C498.991 152.852 499.006 152.872 499.025 152.886C499.059 152.915 499.088 152.939 499.121 152.973C499.184 153.031 499.247 153.093 499.304 153.161C499.319 153.175 499.328 153.189 499.343 153.209L499.362 153.233C499.362 153.233 499.391 153.267 499.372 153.242C499.353 153.218 499.382 153.252 499.382 153.257L499.401 153.286C499.401 153.286 499.425 153.32 499.434 153.334C499.487 153.406 499.531 153.483 499.574 153.565C499.622 153.657 499.757 153.69 499.844 153.637C499.935 153.575 499.969 153.464 499.916 153.368C499.733 153.016 499.463 152.722 499.145 152.486C499.064 152.424 498.919 152.467 498.876 152.558C498.823 152.66 498.857 152.766 498.948 152.828L498.943 152.823Z" fill="#244949"/>
<path d="M496.621 158.521C496.968 158.849 497.214 159.253 497.349 159.706C497.378 159.807 497.488 159.879 497.594 159.846C497.7 159.812 497.763 159.706 497.734 159.6C497.585 159.085 497.296 158.613 496.906 158.242C496.828 158.17 496.703 158.165 496.626 158.242C496.549 158.319 496.549 158.449 496.626 158.521H496.621Z" fill="#244949"/>
<path d="M369.35 94.5679L366.229 98.0213C365.583 98.7342 365.198 99.6397 365.13 100.598C364.952 103.141 365.111 108.329 368.594 112.818C373.424 119.045 377.205 120.172 381.372 119.744C387.06 119.151 387.826 112.981 387.826 112.981L369.345 94.5679H369.35Z" fill="#346768"/>
<path d="M384.2 118.006C388.752 115.378 389.329 107.854 385.488 101.201C381.646 94.5476 374.842 91.2847 370.29 93.9129C365.738 96.5411 365.162 104.065 369.003 110.718C372.844 117.371 379.648 120.634 384.2 118.006Z" fill="#E4EBEB"/>
<path d="M376.531 98.2525C374.942 97.4626 372.914 97.7997 371.806 99.2447C370.699 100.69 370.78 102.66 371.927 104.018C373.218 105.545 375.168 105.766 377.042 105.733C378.193 105.713 379.301 105.761 380.303 106.392C381.184 106.946 381.926 107.847 382.258 108.839C382.643 109.995 382.143 111.228 381.015 111.744C379.888 112.259 378.631 111.753 377.88 110.867C377.509 110.433 376.883 111.06 377.254 111.493C378.434 112.88 380.553 113.299 382.041 112.143C383.674 110.872 383.515 108.786 382.407 107.216C381.194 105.492 379.426 104.822 377.374 104.841C376.286 104.851 375.197 104.919 374.162 104.519C373.266 104.172 372.442 103.512 372.086 102.602C371.142 100.165 373.786 97.8864 376.079 99.0279C376.589 99.2832 377.037 98.5174 376.527 98.2621L376.531 98.2525Z" fill="#346768"/>
<path d="M382.788 113.964C379.276 108.42 375.784 102.862 372.23 97.342C371.922 96.8652 371.151 97.3083 371.464 97.79C375.019 103.31 378.511 108.868 382.022 114.412C382.325 114.893 383.096 114.45 382.788 113.964Z" fill="#346768"/>
<path d="M383.463 116.585C387.557 114.221 388.149 107.582 384.785 101.756C381.421 95.9304 375.376 93.1234 371.282 95.4869C367.189 97.8504 366.597 104.489 369.961 110.315C373.324 116.141 379.37 118.948 383.463 116.585Z" stroke="#66AFAB" stroke-width="0.415483" stroke-miterlimit="10"/>
</g>
<defs>
<clipPath id="clip0_791_371">
<rect width="598.697" height="420" fill="white"/>
</clipPath>
</defs>
</svg>